<?xml version="1.0" encoding="UTF-8" standalone="no"?><svg xmlns="http://www.w3.org/2000/svg" xmlns:xlink="http://www.w3.org/1999/xlink" contentScriptType="application/ecmascript" contentStyleType="text/css" height="532px" preserveAspectRatio="none" style="width:990px;height:532px;" version="1.1" viewBox="0 0 990 532" width="990px" zoomAndPan="magnify"><defs><filter height="300%" id="f14kh4lwonxkoy" width="300%" x="-1" y="-1"><feGaussianBlur result="blurOut" stdDeviation="2.0"/><feColorMatrix in="blurOut" result="blurOut2" type="matrix" values="0 0 0 0 0 0 0 0 0 0 0 0 0 0 0 0 0 0 .4 0"/><feOffset dx="4.0" dy="4.0" in="blurOut2" result="blurOut3"/><feBlend in="SourceGraphic" in2="blurOut3" mode="normal"/></filter></defs><g><!--cluster TRuDI.Backend--><rect fill="#FFFFFF" filter="url(#f14kh4lwonxkoy)" height="497" style="stroke: #000000; stroke-width: 1.5;" width="957" x="22" y="24"/><path d="M138,25 L138,34.6094 L128,44.6094 L22,44.6094 " fill="none" style="stroke: #000000; stroke-width: 1.5;"/><text fill="#000000" font-family="sans-serif" font-size="14" font-weight="bold" lengthAdjust="spacingAndGlyphs" textLength="106" x="25" y="39.5332">TRuDI.Backend</text><!--entity App--><rect fill="#FEFECE" filter="url(#f14kh4lwonxkoy)" height="47.6094" style="stroke: #A80036; stroke-width: 1.5;" width="142" x="321" y="60"/><rect fill="#FEFECE" height="10" style="stroke: #A80036; stroke-width: 1.5;" width="15" x="443" y="65"/><rect fill="#FEFECE" height="2" style="stroke: #A80036; stroke-width: 1.5;" width="4" x="441" y="67"/><rect fill="#FEFECE" height="2" style="stroke: #A80036; stroke-width: 1.5;" width="4" x="441" y="71"/><text fill="#000000" font-family="sans-serif" font-size="14" lengthAdjust="spacingAndGlyphs" textLength="102" x="336" y="94.5332">ApplicationState</text><!--entity Views--><rect fill="#FEFECE" filter="url(#f14kh4lwonxkoy)" height="47.6094" style="stroke: #A80036; stroke-width: 1.5;" width="76" x="165" y="168"/><rect fill="#FEFECE" height="10" style="stroke: #A80036; stroke-width: 1.5;" width="15" x="221" y="173"/><rect fill="#FEFECE" height="2" style="stroke: #A80036; stroke-width: 1.5;" width="4" x="219" y="175"/><rect fill="#FEFECE" height="2" style="stroke: #A80036; stroke-width: 1.5;" width="4" x="219" y="179"/><text fill="#000000" font-family="sans-serif" font-size="14" lengthAdjust="spacingAndGlyphs" textLength="36" x="180" y="202.5332">Views</text><!--entity HanAdapterRepo--><rect fill="#FEFECE" filter="url(#f14kh4lwonxkoy)" height="47.6094" style="stroke: #A80036; stroke-width: 1.5;" width="231" x="276.5" y="168"/><rect fill="#FEFECE" height="10" style="stroke: #A80036; stroke-width: 1.5;" width="15" x="487.5" y="173"/><rect fill="#FEFECE" height="2" style="stroke: #A80036; stroke-width: 1.5;" width="4" x="485.5" y="175"/><rect fill="#FEFECE" height="2" style="stroke: #A80036; stroke-width: 1.5;" width="4" x="485.5" y="179"/><text fill="#000000" font-family="sans-serif" font-size="14" lengthAdjust="spacingAndGlyphs" textLength="191" x="291.5" y="202.5332">TRuDI.HanAdapter.Repository</text><!--entity TafAdapterRepo--><rect fill="#FEFECE" filter="url(#f14kh4lwonxkoy)" height="47.6094" style="stroke: #A80036; stroke-width: 1.5;" width="227" x="542.5" y="168"/><rect fill="#FEFECE" height="10" style="stroke: #A80036; stroke-width: 1.5;" width="15" x="749.5" y="173"/><rect fill="#FEFECE" height="2" style="stroke: #A80036; stroke-width: 1.5;" width="4" x="747.5" y="175"/><rect fill="#FEFECE" height="2" style="stroke: #A80036; stroke-width: 1.5;" width="4" x="747.5" y="179"/><text fill="#000000" font-family="sans-serif" font-size="14" lengthAdjust="spacingAndGlyphs" textLength="187" x="557.5" y="202.5332">TRuDI.TafAdapter.Repository</text><!--entity IHanAdapter1--><ellipse cx="235" cy="306" fill="#FEFECE" filter="url(#f14kh4lwonxkoy)" rx="8" ry="8" style="stroke: #A80036; stroke-width: 2.0;"/><text fill="#000000" font-family="sans-serif" font-size="14" lengthAdjust="spacingAndGlyphs" textLength="78" x="196" y="337.5332">IHanAdapter</text><!--entity IHanAdapter2--><ellipse cx="393" cy="306" fill="#FEFECE" filter="url(#f14kh4lwonxkoy)" rx="8" ry="8" style="stroke: #A80036; stroke-width: 2.0;"/><text fill="#000000" font-family="sans-serif" font-size="14" lengthAdjust="spacingAndGlyphs" textLength="78" x="354" y="337.5332">IHanAdapter</text><!--entity HanAdapter1--><rect fill="#FEFECE" filter="url(#f14kh4lwonxkoy)" height="47.6094" style="stroke: #A80036; stroke-width: 1.5;" width="221" x="38.5" y="457"/><rect fill="#FEFECE" height="10" style="stroke: #A80036; stroke-width: 1.5;" width="15" x="239.5" y="462"/><rect fill="#FEFECE" height="2" style="stroke: #A80036; stroke-width: 1.5;" width="4" x="237.5" y="464"/><rect fill="#FEFECE" height="2" style="stroke: #A80036; stroke-width: 1.5;" width="4" x="237.5" y="468"/><text fill="#000000" font-family="sans-serif" font-size="14" lengthAdjust="spacingAndGlyphs" textLength="181" x="53.5" y="491.5332">TRuDI.HanAdapter.Adapter1</text><!--entity HanAdapterN--><rect fill="#FEFECE" filter="url(#f14kh4lwonxkoy)" height="47.6094" style="stroke: #A80036; stroke-width: 1.5;" width="222" x="295" y="457"/><rect fill="#FEFECE" height="10" style="stroke: #A80036; stroke-width: 1.5;" width="15" x="497" y="462"/><rect fill="#FEFECE" height="2" style="stroke: #A80036; stroke-width: 1.5;" width="4" x="495" y="464"/><rect fill="#FEFECE" height="2" style="stroke: #A80036; stroke-width: 1.5;" width="4" x="495" y="468"/><text fill="#000000" font-family="sans-serif" font-size="14" lengthAdjust="spacingAndGlyphs" textLength="182" x="310" y="491.5332">TRuDI.HanAdapter.AdapterN</text><!--entity ITafAdapter1--><ellipse cx="650" cy="306" fill="#FEFECE" filter="url(#f14kh4lwonxkoy)" rx="8" ry="8" style="stroke: #A80036; stroke-width: 2.0;"/><text fill="#000000" font-family="sans-serif" font-size="14" lengthAdjust="spacingAndGlyphs" textLength="74" x="613" y="337.5332">ITafAdapter</text><!--entity ITafAdapter2--><ellipse cx="824" cy="306" fill="#FEFECE" filter="url(#f14kh4lwonxkoy)" rx="8" ry="8" style="stroke: #A80036; stroke-width: 2.0;"/><text fill="#000000" font-family="sans-serif" font-size="14" lengthAdjust="spacingAndGlyphs" textLength="74" x="787" y="337.5332">ITafAdapter</text><!--entity TafAdapter1--><rect fill="#FEFECE" filter="url(#f14kh4lwonxkoy)" height="47.6094" style="stroke: #A80036; stroke-width: 1.5;" width="188" x="552" y="457"/><rect fill="#FEFECE" height="10" style="stroke: #A80036; stroke-width: 1.5;" width="15" x="720" y="462"/><rect fill="#FEFECE" height="2" style="stroke: #A80036; stroke-width: 1.5;" width="4" x="718" y="464"/><rect fill="#FEFECE" height="2" style="stroke: #A80036; stroke-width: 1.5;" width="4" x="718" y="468"/><text fill="#000000" font-family="sans-serif" font-size="14" lengthAdjust="spacingAndGlyphs" textLength="148" x="567" y="491.5332">TRuDI.TafAdapter.Taf1</text><!--entity TafAdapter2--><rect fill="#FEFECE" filter="url(#f14kh4lwonxkoy)" height="47.6094" style="stroke: #A80036; stroke-width: 1.5;" width="188" x="775" y="457"/><rect fill="#FEFECE" height="10" style="stroke: #A80036; stroke-width: 1.5;" width="15" x="943" y="462"/><rect fill="#FEFECE" height="2" style="stroke: #A80036; stroke-width: 1.5;" width="4" x="941" y="464"/><rect fill="#FEFECE" height="2" style="stroke: #A80036; stroke-width: 1.5;" width="4" x="941" y="468"/><text fill="#000000" font-family="sans-serif" font-size="14" lengthAdjust="spacingAndGlyphs" textLength="148" x="790" y="491.5332">TRuDI.TafAdapter.Taf2</text><!--link App to HanAdapterRepo--><path d="M392,108 C392,124.003 392,145.446 392,162.528 " fill="none" id="App-HanAdapterRepo" style="stroke: #A80036; stroke-width: 1.0;"/><polygon fill="#A80036" points="392,167.678,396,158.678,392,162.678,388,158.678,392,167.678" style="stroke: #A80036; stroke-width: 1.0;"/><!--link App to TafAdapterRepo--><path d="M449.284,108 C491.863,125.096 549.906,148.402 593.649,165.965 " fill="none" id="App-TafAdapterRepo" style="stroke: #A80036; stroke-width: 1.0;"/><polygon fill="#A80036" points="598.372,167.862,591.5121,160.795,593.7325,165.9979,588.5296,168.2182,598.372,167.862" style="stroke: #A80036; stroke-width: 1.0;"/><!--link App to Views--><path d="M346.313,110.623 C315.721,127.781 275.721,150.215 245.756,167.021 " fill="none" id="App-Views" style="stroke: #A80036; stroke-width: 1.0;"/><polygon fill="#A80036" points="241.036,169.668,250.8421,168.7511,245.3962,167.2208,246.9265,161.7748,241.036,169.668" style="stroke: #A80036; stroke-width: 1.0;"/><polygon fill="#A80036" points="350.99,108,341.1836,108.9131,346.6289,110.4455,345.0964,115.8909,350.99,108" style="stroke: #A80036; stroke-width: 1.0;"/><!--link IHanAdapter1 to HanAdapter1--><path d="M230.852,315.344 C218.236,340.722 180.007,417.626 160.587,456.6909 " fill="none" id="IHanAdapter1-HanAdapter1" style="stroke: #A80036; stroke-width: 1.0;"/><!--link IHanAdapter2 to HanAdapterN--><path d="M393.627,315.344 C395.534,340.722 401.313,417.626 404.248,456.6909 " fill="none" id="IHanAdapter2-HanAdapterN" style="stroke: #A80036; stroke-width: 1.0;"/><!--link HanAdapterRepo to IHanAdapter1--><path d="M359.469,216.206 C325.14,240.696 272.702,278.104 248.322,295.496 " fill="none" id="HanAdapterRepo-IHanAdapter1" style="stroke: #A80036; stroke-width: 1.0; stroke-dasharray: 7.0,7.0;"/><polygon fill="#A80036" points="244.107,298.503,253.7565,296.5313,248.177,295.5987,249.1096,290.0192,244.107,298.503" style="stroke: #A80036; stroke-width: 1.0;"/><!--link HanAdapterRepo to IHanAdapter2--><path d="M392.207,216.206 C392.41,238.968 392.713,272.891 392.88,291.529 " fill="none" id="HanAdapterRepo-IHanAdapter2" style="stroke: #A80036; stroke-width: 1.0; stroke-dasharray: 7.0,7.0;"/><polygon fill="#A80036" points="392.927,296.793,396.8446,287.7568,392.8813,291.7932,388.8449,287.8299,392.927,296.793" style="stroke: #A80036; stroke-width: 1.0;"/><!--link TafAdapterRepo to ITafAdapter1--><path d="M654.757,216.206 C653.537,238.968 651.72,272.891 650.722,291.529 " fill="none" id="TafAdapterRepo-ITafAdapter1" style="stroke: #A80036; stroke-width: 1.0; stroke-dasharray: 7.0,7.0;"/><polygon fill="#A80036" points="650.44,296.793,654.9176,288.0208,650.7086,291.8002,646.9292,287.5911,650.44,296.793" style="stroke: #A80036; stroke-width: 1.0;"/><!--link TafAdapterRepo to ITafAdapter2--><path d="M690.81,216.206 C727.906,240.937 784.764,278.843 810.507,296.005 " fill="none" id="TafAdapterRepo-ITafAdapter2" style="stroke: #A80036; stroke-width: 1.0; stroke-dasharray: 7.0,7.0;"/><polygon fill="#A80036" points="814.94,298.96,809.6697,290.6399,810.7795,296.1868,805.2326,297.2967,814.94,298.96" style="stroke: #A80036; stroke-width: 1.0;"/><!--link ITafAdapter1 to TafAdapter1--><path d="M649.807,315.344 C649.22,340.722 647.442,417.626 646.539,456.6909 " fill="none" id="ITafAdapter1-TafAdapter1" style="stroke: #A80036; stroke-width: 1.0;"/><!--link ITafAdapter2 to TafAdapter2--><path d="M826.17,315.344 C832.772,340.722 852.776,417.626 862.937,456.6909 " fill="none" id="ITafAdapter2-TafAdapter2" style="stroke: #A80036; stroke-width: 1.0;"/><!--
@startuml

skinparam componentStyle uml2

frame TRuDI.Backend {

    component "ApplicationState" as App
    component "Views" as Views

    component "TRuDI.HanAdapter.Repository" as HanAdapterRepo
    component "TRuDI.TafAdapter.Repository" as TafAdapterRepo

    App - -> HanAdapterRepo
    App - -> TafAdapterRepo
    App <- -> Views

    interface IHanAdapter as IHanAdapter1
    interface IHanAdapter as IHanAdapter2
    
    component "TRuDI.HanAdapter.Adapter1" as HanAdapter1
    component "TRuDI.HanAdapter.AdapterN" as HanAdapterN

    IHanAdapter1 - - - HanAdapter1
    IHanAdapter2 - - - HanAdapterN

    HanAdapterRepo ..> IHanAdapter1
    HanAdapterRepo ..> IHanAdapter2

    interface ITafAdapter as ITafAdapter1
    interface ITafAdapter as ITafAdapter2

    component "TRuDI.TafAdapter.Taf1" as TafAdapter1
    component "TRuDI.TafAdapter.Taf2" as TafAdapter2

    TafAdapterRepo ..> ITafAdapter1
    TafAdapterRepo ..> ITafAdapter2

    ITafAdapter1 - - - TafAdapter1
    ITafAdapter2 - - - TafAdapter2
}

@enduml

PlantUML version 1.2017.20(Mon Dec 11 17:57:05 CET 2017)
(GPL source distribution)
Java Runtime: Java(TM) SE Runtime Environment
JVM: Java HotSpot(TM) 64-Bit Server VM
Java Version: 1.8.0_151-b12
Operating System: Windows 10
OS Version: 10.0
Default Encoding: Cp1252
Language: de
Country: DE
--></g></svg>