<?xml version="1.0" encoding="UTF-8" standalone="no"?><svg xmlns="http://www.w3.org/2000/svg" xmlns:xlink="http://www.w3.org/1999/xlink" contentScriptType="application/ecmascript" contentStyleType="text/css" height="647px" preserveAspectRatio="none" style="width:819px;height:647px;" version="1.1" viewBox="0 0 819 647" width="819px" zoomAndPan="magnify"><defs><filter height="300%" id="f1kyhl42omwia" width="300%" x="-1" y="-1"><feGaussianBlur result="blurOut" stdDeviation="2.0"/><feColorMatrix in="blurOut" result="blurOut2" type="matrix" values="0 0 0 0 0 0 0 0 0 0 0 0 0 0 0 0 0 0 .4 0"/><feOffset dx="4.0" dy="4.0" in="blurOut2" result="blurOut3"/><feBlend in="SourceGraphic" in2="blurOut3" mode="normal"/></filter></defs><g><!--cluster TRuDI.HanAdapter.*--><rect fill="#FFFFFF" filter="url(#f1kyhl42omwia)" height="413" style="stroke: #000000; stroke-width: 1.5;" width="623" x="22" y="24"/><path d="M168,25 L168,34.6094 L158,44.6094 L22,44.6094 " fill="none" style="stroke: #000000; stroke-width: 1.5;"/><text fill="#000000" font-family="sans-serif" font-size="14" font-weight="bold" lengthAdjust="spacingAndGlyphs" textLength="136" x="25" y="39.5332">TRuDI.HanAdapter.*</text><!--class IHanAdapter--><rect fill="#FEFECE" filter="url(#f1kyhl42omwia)" height="144.8516" id="IHanAdapter" style="stroke: #A80036; stroke-width: 1.5;" width="247" x="350.5" y="60"/><ellipse cx="434.75" cy="76" fill="#B4A7E5" rx="11" ry="11" style="stroke: #A80036; stroke-width: 1.0;"/><path d="M435.7031,72.6406 L435.7031,79.2969 L437.4219,79.2969 Q438.0313,79.2969 438.2969,79.5313 Q438.5625,79.7656 438.5625,80.1563 Q438.5625,80.5313 438.2969,80.7656 Q438.0313,81 437.4219,81 L432.2813,81 Q431.6719,81 431.4063,80.7656 Q431.1406,80.5313 431.1406,80.1406 Q431.1406,79.7656 431.4063,79.5313 Q431.6719,79.2969 432.2813,79.2969 L434,79.2969 L434,72.6406 L432.2813,72.6406 Q431.6719,72.6406 431.4063,72.4063 Q431.1406,72.1719 431.1406,71.7813 Q431.1406,71.4063 431.4063,71.1719 Q431.6719,70.9375 432.2813,70.9375 L437.4219,70.9375 Q438.0313,70.9375 438.2969,71.1719 Q438.5625,71.4063 438.5625,71.7813 Q438.5625,72.1719 438.2969,72.4063 Q438.0313,72.6406 437.4219,72.6406 L435.7031,72.6406 Z "/><text fill="#000000" font-family="sans-serif" font-size="12" font-style="italic" lengthAdjust="spacingAndGlyphs" textLength="70" x="455.25" y="80.9102">IHanAdapter</text><line style="stroke: #A80036; stroke-width: 1.5;" x1="351.5" x2="596.5" y1="92" y2="92"/><text fill="#000000" font-family="sans-serif" font-size="11" lengthAdjust="spacingAndGlyphs" textLength="174" x="356.5" y="107.4189">SmgwImageViewComponent : View</text><text fill="#000000" font-family="sans-serif" font-size="11" lengthAdjust="spacingAndGlyphs" textLength="235" x="356.5" y="121.2549">ManufacturerParametersViewComponent : View</text><line style="stroke: #A80036; stroke-width: 1.5;" x1="351.5" x2="596.5" y1="127.6719" y2="127.6719"/><text fill="#000000" font-family="sans-serif" font-size="11" lengthAdjust="spacingAndGlyphs" textLength="48" x="356.5" y="143.0908">Connect()</text><text fill="#000000" font-family="sans-serif" font-size="11" lengthAdjust="spacingAndGlyphs" textLength="123" x="356.5" y="156.9268">LoadAvailableContracts()</text><text fill="#000000" font-family="sans-serif" font-size="11" lengthAdjust="spacingAndGlyphs" textLength="54" x="356.5" y="170.7627">LoadData()</text><text fill="#000000" font-family="sans-serif" font-size="11" lengthAdjust="spacingAndGlyphs" textLength="135" x="356.5" y="184.5986">GetCurrentRegisterValues()</text><text fill="#000000" font-family="sans-serif" font-size="11" lengthAdjust="spacingAndGlyphs" textLength="62" x="356.5" y="198.4346">Disconnect()</text><!--class HanAdapter--><rect fill="#FEFECE" filter="url(#f1kyhl42omwia)" height="48" id="HanAdapter" style="stroke: #A80036; stroke-width: 1.5;" width="200" x="374" y="265"/><ellipse cx="389" cy="281" fill="#ADD1B2" rx="11" ry="11" style="stroke: #A80036; stroke-width: 1.0;"/><path d="M391.7656,276.875 Q391.9219,276.6563 392.1094,276.5469 Q392.2969,276.4375 392.5156,276.4375 Q392.8906,276.4375 393.125,276.6953 Q393.3594,276.9531 393.3594,277.5625 L393.3594,279.0156 Q393.3594,279.625 393.125,279.8906 Q392.8906,280.1563 392.5156,280.1563 Q392.1719,280.1563 391.9688,279.9531 Q391.7656,279.7656 391.6563,279.25 Q391.6094,278.8906 391.4219,278.7031 Q391.0938,278.3281 390.4844,278.1094 Q389.875,277.8906 389.25,277.8906 Q388.4844,277.8906 387.8516,278.2188 Q387.2188,278.5469 386.7266,279.2969 Q386.2344,280.0469 386.2344,281.0781 L386.2344,282.1719 Q386.2344,283.4063 387.125,284.2266 Q388.0156,285.0469 389.6094,285.0469 Q390.5469,285.0469 391.2031,284.7969 Q391.5938,284.6406 392.0156,284.2031 Q392.2813,283.9375 392.4297,283.8594 Q392.5781,283.7813 392.7813,283.7813 Q393.1094,283.7813 393.3672,284.0391 Q393.625,284.2969 393.625,284.6406 Q393.625,284.9844 393.2813,285.3906 Q392.7813,285.9688 391.9844,286.2969 Q390.9063,286.75 389.6094,286.75 Q388.0938,286.75 386.8906,286.125 Q385.9063,285.625 385.2188,284.5547 Q384.5313,283.4844 384.5313,282.2031 L384.5313,281.0469 Q384.5313,279.7188 385.1484,278.5703 Q385.7656,277.4219 386.8594,276.8047 Q387.9531,276.1875 389.1875,276.1875 Q389.9219,276.1875 390.5703,276.3516 Q391.2188,276.5156 391.7656,276.875 Z "/><text fill="#000000" font-family="sans-serif" font-size="12" lengthAdjust="spacingAndGlyphs" textLength="168" x="403" y="285.9102">TRuDI.HanAdapter.&lt;&lt;Name&gt;&gt;</text><line style="stroke: #A80036; stroke-width: 1.5;" x1="375" x2="573" y1="297" y2="297"/><line style="stroke: #A80036; stroke-width: 1.5;" x1="375" x2="573" y1="305" y2="305"/><!--entity GatewayImageView--><rect fill="#FEFECE" filter="url(#f1kyhl42omwia)" height="47.6094" style="stroke: #A80036; stroke-width: 1.5;" width="246" x="38" y="373"/><rect fill="#FEFECE" height="10" style="stroke: #A80036; stroke-width: 1.5;" width="15" x="264" y="378"/><rect fill="#FEFECE" height="2" style="stroke: #A80036; stroke-width: 1.5;" width="4" x="262" y="380"/><rect fill="#FEFECE" height="2" style="stroke: #A80036; stroke-width: 1.5;" width="4" x="262" y="384"/><text fill="#000000" font-family="sans-serif" font-size="14" lengthAdjust="spacingAndGlyphs" textLength="206" x="53" y="407.5332">Components.GatewayImageView</text><!--entity ManufacturerParametersView--><rect fill="#FEFECE" filter="url(#f1kyhl42omwia)" height="47.6094" style="stroke: #A80036; stroke-width: 1.5;" width="310" x="319" y="373"/><rect fill="#FEFECE" height="10" style="stroke: #A80036; stroke-width: 1.5;" width="15" x="609" y="378"/><rect fill="#FEFECE" height="2" style="stroke: #A80036; stroke-width: 1.5;" width="4" x="607" y="380"/><rect fill="#FEFECE" height="2" style="stroke: #A80036; stroke-width: 1.5;" width="4" x="607" y="384"/><text fill="#000000" font-family="sans-serif" font-size="14" lengthAdjust="spacingAndGlyphs" textLength="270" x="334" y="407.5332">Components.ManufacturerParametersView</text><!--entity IvuHttp--><rect fill="#FEFECE" filter="url(#f1kyhl42omwia)" height="47.6094" style="stroke: #A80036; stroke-width: 1.5;" width="90" x="664" y="373"/><rect fill="#FEFECE" height="10" style="stroke: #A80036; stroke-width: 1.5;" width="15" x="734" y="378"/><rect fill="#FEFECE" height="2" style="stroke: #A80036; stroke-width: 1.5;" width="4" x="732" y="380"/><rect fill="#FEFECE" height="2" style="stroke: #A80036; stroke-width: 1.5;" width="4" x="732" y="384"/><text fill="#000000" font-family="sans-serif" font-size="14" lengthAdjust="spacingAndGlyphs" textLength="50" x="679" y="407.5332">IVU.Http</text><!--entity IvuCommonTls--><rect fill="#FEFECE" filter="url(#f1kyhl42omwia)" height="47.6094" style="stroke: #A80036; stroke-width: 1.5;" width="144" x="637" y="481"/><rect fill="#FEFECE" height="10" style="stroke: #A80036; stroke-width: 1.5;" width="15" x="761" y="486"/><rect fill="#FEFECE" height="2" style="stroke: #A80036; stroke-width: 1.5;" width="4" x="759" y="488"/><rect fill="#FEFECE" height="2" style="stroke: #A80036; stroke-width: 1.5;" width="4" x="759" y="492"/><text fill="#000000" font-family="sans-serif" font-size="14" lengthAdjust="spacingAndGlyphs" textLength="104" x="652" y="515.5332">IVU.Common.Tls</text><!--entity IvuBouncyCastleCrypto--><rect fill="#FEFECE" filter="url(#f1kyhl42omwia)" height="47.6094" style="stroke: #A80036; stroke-width: 1.5;" width="198" x="610" y="589"/><rect fill="#FEFECE" height="10" style="stroke: #A80036; stroke-width: 1.5;" width="15" x="788" y="594"/><rect fill="#FEFECE" height="2" style="stroke: #A80036; stroke-width: 1.5;" width="4" x="786" y="596"/><rect fill="#FEFECE" height="2" style="stroke: #A80036; stroke-width: 1.5;" width="4" x="786" y="600"/><text fill="#000000" font-family="sans-serif" font-size="14" lengthAdjust="spacingAndGlyphs" textLength="158" x="625" y="623.5332">IVU.BouncyCastle.Crypto</text><!--link IHanAdapter to HanAdapter--><path d="M474,225.378 C474,239.909 474,253.723 474,264.661 " fill="none" id="IHanAdapter-HanAdapter" style="stroke: #A80036; stroke-width: 1.0;"/><polygon fill="none" points="467,225.322,474,205.322,481,225.322,467,225.322" style="stroke: #A80036; stroke-width: 1.0;"/><!--link HanAdapter to GatewayImageView--><path d="M406.084,313 C355.311,330.195 285.99,353.671 234.027,371.269 " fill="none" id="HanAdapter-GatewayImageView" style="stroke: #A80036; stroke-width: 1.0;"/><polygon fill="#A80036" points="229.053,372.953,238.8606,373.8538,233.7886,371.3487,236.2938,366.2768,229.053,372.953" style="stroke: #A80036; stroke-width: 1.0;"/><!--link HanAdapter to ManufacturerParametersView--><path d="M474,313 C474,329.003 474,350.446 474,367.528 " fill="none" id="HanAdapter-ManufacturerParametersView" style="stroke: #A80036; stroke-width: 1.0;"/><polygon fill="#A80036" points="474,372.678,478,363.678,474,367.678,470,363.678,474,372.678" style="stroke: #A80036; stroke-width: 1.0;"/><!--link HanAdapter to IvuHttp--><path d="M524.992,313 C564.685,330.905 619.478,355.62 658.934,373.417 " fill="none" id="HanAdapter-IvuHttp" style="stroke: #A80036; stroke-width: 1.0;"/><polygon fill="#A80036" points="663.668,375.552,657.108,368.2058,659.11,373.4966,653.8193,375.4986,663.668,375.552" style="stroke: #A80036; stroke-width: 1.0;"/><!--link IvuHttp to IvuCommonTls--><path d="M709,421 C709,437.003 709,458.446 709,475.528 " fill="none" id="IvuHttp-IvuCommonTls" style="stroke: #A80036; stroke-width: 1.0;"/><polygon fill="#A80036" points="709,480.678,713,471.678,709,475.678,705,471.678,709,480.678" style="stroke: #A80036; stroke-width: 1.0;"/><!--link IvuCommonTls to IvuBouncyCastleCrypto--><path d="M709,529 C709,545.003 709,566.4461 709,583.528 " fill="none" id="IvuCommonTls-IvuBouncyCastleCrypto" style="stroke: #A80036; stroke-width: 1.0;"/><polygon fill="#A80036" points="709,588.6784,713,579.6784,709,583.6784,705,579.6784,709,588.6784" style="stroke: #A80036; stroke-width: 1.0;"/><!--
@startuml

skinparam componentStyle uml2
allow_mixing

frame TRuDI.HanAdapter.* {

    interface IHanAdapter {
        Connect()
        LoadAvailableContracts()
        LoadData()
        GetCurrentRegisterValues()
        Disconnect()
        SmgwImageViewComponent : View
        ManufacturerParametersViewComponent : View
    }
    
    class "TRuDI.HanAdapter.<<Name>>" as HanAdapter

    IHanAdapter <|- - HanAdapter

    component "Components.GatewayImageView" as GatewayImageView
    component "Components.ManufacturerParametersView" as ManufacturerParametersView

    HanAdapter - -> GatewayImageView
    HanAdapter - -> ManufacturerParametersView
}

component "IVU.Http" as IvuHttp
component "IVU.Common.Tls" as IvuCommonTls
component "IVU.BouncyCastle.Crypto" as IvuBouncyCastleCrypto

HanAdapter - -> IvuHttp
IvuHttp - -> IvuCommonTls
IvuCommonTls - -> IvuBouncyCastleCrypto


@enduml

PlantUML version 1.2017.20(Mon Dec 11 17:57:05 CET 2017)
(GPL source distribution)
Java Runtime: Java(TM) SE Runtime Environment
JVM: Java HotSpot(TM) 64-Bit Server VM
Java Version: 1.8.0_161-b12
Operating System: Windows 10
OS Version: 10.0
Default Encoding: Cp1252
Language: de
Country: DE
--></g></svg>