<?xml version="1.0" encoding="UTF-8" standalone="no"?><svg xmlns="http://www.w3.org/2000/svg" xmlns:xlink="http://www.w3.org/1999/xlink" contentScriptType="application/ecmascript" contentStyleType="text/css" height="243px" preserveAspectRatio="none" style="width:414px;height:243px;" version="1.1" viewBox="0 0 414 243" width="414px" zoomAndPan="magnify"><defs><filter height="300%" id="f1kyis8uyrmi76" width="300%" x="-1" y="-1"><feGaussianBlur result="blurOut" stdDeviation="2.0"/><feColorMatrix in="blurOut" result="blurOut2" type="matrix" values="0 0 0 0 0 0 0 0 0 0 0 0 0 0 0 0 0 0 .4 0"/><feOffset dx="4.0" dy="4.0" in="blurOut2" result="blurOut3"/><feBlend in="SourceGraphic" in2="blurOut3" mode="normal"/></filter></defs><g><!--cluster TRuDI--><rect fill="#FFFFFF" filter="url(#f1kyis8uyrmi76)" height="208" style="stroke: #000000; stroke-width: 1.5;" width="381" x="22" y="24"/><path d="M73,25 L73,34.6094 L63,44.6094 L22,44.6094 " fill="none" style="stroke: #000000; stroke-width: 1.5;"/><text fill="#000000" font-family="sans-serif" font-size="14" font-weight="bold" lengthAdjust="spacingAndGlyphs" textLength="41" x="25" y="39.5332">TRuDI</text><!--entity Backend--><rect fill="#FEFECE" filter="url(#f1kyis8uyrmi76)" height="47.6094" style="stroke: #A80036; stroke-width: 1.5;" width="139" x="38.5" y="168"/><rect fill="#FEFECE" height="10" style="stroke: #A80036; stroke-width: 1.5;" width="15" x="157.5" y="173"/><rect fill="#FEFECE" height="2" style="stroke: #A80036; stroke-width: 1.5;" width="4" x="155.5" y="175"/><rect fill="#FEFECE" height="2" style="stroke: #A80036; stroke-width: 1.5;" width="4" x="155.5" y="179"/><text fill="#000000" font-family="sans-serif" font-size="14" lengthAdjust="spacingAndGlyphs" textLength="99" x="53.5" y="202.5332">TRuDI.Backend</text><!--entity Frontend--><rect fill="#FEFECE" filter="url(#f1kyis8uyrmi76)" height="47.6094" style="stroke: #A80036; stroke-width: 1.5;" width="142" x="38" y="60"/><rect fill="#FEFECE" height="10" style="stroke: #A80036; stroke-width: 1.5;" width="15" x="160" y="65"/><rect fill="#FEFECE" height="2" style="stroke: #A80036; stroke-width: 1.5;" width="4" x="158" y="67"/><rect fill="#FEFECE" height="2" style="stroke: #A80036; stroke-width: 1.5;" width="4" x="158" y="71"/><text fill="#000000" font-family="sans-serif" font-size="14" lengthAdjust="spacingAndGlyphs" textLength="102" x="53" y="94.5332">TRuDI.Frontend</text><polygon fill="#FBFB77" filter="url(#f1kyis8uyrmi76)" points="213,179,213,205.3516,387,205.3516,387,189,377,179,213,179" style="stroke: #A80036; stroke-width: 1.0;"/><polygon fill="#FBFB77" points="213,179,213,188,177.75,192,213,196,213,205.3516,387,205.3516,387,189,377,179,213,179" style="stroke: #A80036; stroke-width: 1.0;"/><line style="stroke: #A80036; stroke-width: 1.0;" x1="377" x2="377" y1="179" y2="189"/><line style="stroke: #A80036; stroke-width: 1.0;" x1="387" x2="377" y1="189" y2="189"/><text fill="#000000" font-family="sans-serif" font-size="13" lengthAdjust="spacingAndGlyphs" textLength="153" x="219" y="197.4951">ASP.Net Core-Anwendung</text><polygon fill="#FBFB77" filter="url(#f1kyis8uyrmi76)" points="215,71,215,97.3516,355,97.3516,355,81,345,71,215,71" style="stroke: #A80036; stroke-width: 1.0;"/><polygon fill="#FBFB77" points="215,71,215,80,180.156,84,215,88,215,97.3516,355,97.3516,355,81,345,71,215,71" style="stroke: #A80036; stroke-width: 1.0;"/><line style="stroke: #A80036; stroke-width: 1.0;" x1="345" x2="345" y1="71" y2="81"/><line style="stroke: #A80036; stroke-width: 1.0;" x1="355" x2="345" y1="81" y2="81"/><text fill="#000000" font-family="sans-serif" font-size="13" lengthAdjust="spacingAndGlyphs" textLength="119" x="221" y="89.4951">Electron-Anwendung</text><!--link Frontend to Backend--><path d="M108.783,108 C108.632,124.003 108.43,145.446 108.269,162.528 " fill="none" id="Frontend-Backend" style="stroke: #A80036; stroke-width: 1.0;"/><polygon fill="#A80036" points="108.22,167.6784,112.3049,158.7166,108.2673,162.6786,104.3053,158.641,108.22,167.6784" style="stroke: #A80036; stroke-width: 1.0;"/><!--
@startuml

skinparam componentStyle uml2

frame TRuDI {
    component "TRuDI.Backend" as Backend
    component "TRuDI.Frontend" as Frontend 

    note right of Backend : ASP.Net Core-Anwendung
    note right of Frontend : Electron-Anwendung

    Frontend - -> Backend
}

@enduml

PlantUML version 1.2017.20(Mon Dec 11 17:57:05 CET 2017)
(GPL source distribution)
Java Runtime: Java(TM) SE Runtime Environment
JVM: Java HotSpot(TM) 64-Bit Server VM
Java Version: 1.8.0_151-b12
Operating System: Windows 10
OS Version: 10.0
Default Encoding: Cp1252
Language: de
Country: DE
--></g></svg>