<?xml version="1.0" encoding="UTF-8" standalone="no"?><svg xmlns="http://www.w3.org/2000/svg" xmlns:xlink="http://www.w3.org/1999/xlink" contentScriptType="application/ecmascript" contentStyleType="text/css" height="436px" preserveAspectRatio="none" style="width:594px;height:436px;" version="1.1" viewBox="0 0 594 436" width="594px" zoomAndPan="magnify"><defs><filter height="300%" id="f19trikuq1n8h5" width="300%" x="-1" y="-1"><feGaussianBlur result="blurOut" stdDeviation="2.0"/><feColorMatrix in="blurOut" result="blurOut2" type="matrix" values="0 0 0 0 0 0 0 0 0 0 0 0 0 0 0 0 0 0 .4 0"/><feOffset dx="4.0" dy="4.0" in="blurOut2" result="blurOut3"/><feBlend in="SourceGraphic" in2="blurOut3" mode="normal"/></filter></defs><g><!--cluster TRuDI--><rect fill="#FFFFFF" filter="url(#f19trikuq1n8h5)" height="224" style="stroke: #000000; stroke-width: 1.5;" width="335" x="51.5" y="117"/><path d="M102.5,118 L102.5,127.6094 L92.5,137.6094 L51.5,137.6094 " fill="none" style="stroke: #000000; stroke-width: 1.5;"/><text fill="#000000" font-family="sans-serif" font-size="14" font-weight="bold" lengthAdjust="spacingAndGlyphs" textLength="41" x="54.5" y="132.5332">TRuDI</text><!--entity TRuDICore--><rect fill="#FEFECE" filter="url(#f19trikuq1n8h5)" height="47.6094" style="stroke: #A80036; stroke-width: 1.5;" width="186" x="135.5" y="161"/><rect fill="#FEFECE" height="10" style="stroke: #A80036; stroke-width: 1.5;" width="15" x="301.5" y="166"/><rect fill="#FEFECE" height="2" style="stroke: #A80036; stroke-width: 1.5;" width="4" x="299.5" y="168"/><rect fill="#FEFECE" height="2" style="stroke: #A80036; stroke-width: 1.5;" width="4" x="299.5" y="172"/><text fill="#000000" font-family="sans-serif" font-size="14" lengthAdjust="spacingAndGlyphs" textLength="146" x="150.5" y="195.5332">TRuDI-Hauptprogramm</text><!--entity HanAdapter--><rect fill="#FEFECE" filter="url(#f19trikuq1n8h5)" height="47.6094" style="stroke: #A80036; stroke-width: 1.5;" width="122" x="83.5" y="269"/><rect fill="#FEFECE" height="10" style="stroke: #A80036; stroke-width: 1.5;" width="15" x="185.5" y="274"/><rect fill="#FEFECE" height="2" style="stroke: #A80036; stroke-width: 1.5;" width="4" x="183.5" y="276"/><rect fill="#FEFECE" height="2" style="stroke: #A80036; stroke-width: 1.5;" width="4" x="183.5" y="280"/><text fill="#000000" font-family="sans-serif" font-size="14" lengthAdjust="spacingAndGlyphs" textLength="82" x="98.5" y="303.5332">HAN-Adapter</text><!--entity TafAdapter--><rect fill="#FEFECE" filter="url(#f19trikuq1n8h5)" height="47.6094" style="stroke: #A80036; stroke-width: 1.5;" width="122" x="240.5" y="269"/><rect fill="#FEFECE" height="10" style="stroke: #A80036; stroke-width: 1.5;" width="15" x="342.5" y="274"/><rect fill="#FEFECE" height="2" style="stroke: #A80036; stroke-width: 1.5;" width="4" x="340.5" y="276"/><rect fill="#FEFECE" height="2" style="stroke: #A80036; stroke-width: 1.5;" width="4" x="340.5" y="280"/><text fill="#000000" font-family="sans-serif" font-size="14" lengthAdjust="spacingAndGlyphs" textLength="82" x="255.5" y="303.5332">TAF-Adapter</text><!--entity Letztverbraucher--><ellipse cx="59.5" cy="18" fill="#FEFECE" filter="url(#f19trikuq1n8h5)" rx="8" ry="8" style="stroke: #A80036; stroke-width: 2.0;"/><path d="M59.5,26 L59.5,53 M46.5,34 L72.5,34 M59.5,53 L46.5,68 M59.5,53 L72.5,68 " fill="#FEFECE" filter="url(#f19trikuq1n8h5)" style="stroke: #A80036; stroke-width: 2.0;"/><text fill="#000000" font-family="sans-serif" font-size="14" lengthAdjust="spacingAndGlyphs" textLength="107" x="6" y="89.5332">Letztverbraucher</text><!--entity Lieferant--><ellipse cx="491.5" cy="18" fill="#FEFECE" filter="url(#f19trikuq1n8h5)" rx="8" ry="8" style="stroke: #A80036; stroke-width: 2.0;"/><path d="M491.5,26 L491.5,53 M478.5,34 L504.5,34 M491.5,53 L478.5,68 M491.5,53 L504.5,68 " fill="#FEFECE" filter="url(#f19trikuq1n8h5)" style="stroke: #A80036; stroke-width: 2.0;"/><text fill="#000000" font-family="sans-serif" font-size="14" lengthAdjust="spacingAndGlyphs" textLength="56" x="463.5" y="89.5332">Lieferant</text><!--entity Smgw--><polygon fill="#FEFECE" filter="url(#f19trikuq1n8h5)" points="56.5,387,66.5,377,232.5,377,232.5,414.6094,222.5,424.6094,56.5,424.6094,56.5,387" style="stroke: #000000; stroke-width: 1.5;"/><line style="stroke: #000000; stroke-width: 1.5;" x1="222.5" x2="231.5" y1="387" y2="378"/><line style="stroke: #000000; stroke-width: 1.5;" x1="56.5" x2="222.5" y1="387" y2="387"/><line style="stroke: #000000; stroke-width: 1.5;" x1="222.5" x2="222.5" y1="387" y2="424.6094"/><text fill="#000000" font-family="sans-serif" font-size="14" lengthAdjust="spacingAndGlyphs" textLength="136" x="71.5" y="411.5332">Smart Meter Gateway</text><!--entity LieferantenXml--><polygon fill="#FEFECE" filter="url(#f19trikuq1n8h5)" points="410.5,166,410.5,203.6094,572.5,203.6094,572.5,176,562.5,166,410.5,166" style="stroke: #000000; stroke-width: 1.5;"/><path d="M562.5,166 L562.5,176 L572.5,176 " fill="#FEFECE" style="stroke: #000000; stroke-width: 1.5;"/><text fill="#000000" font-family="sans-serif" font-size="14" lengthAdjust="spacingAndGlyphs" textLength="142" x="420.5" y="190.5332">Lieferanten-XML-Datei</text><!--link TRuDICore to HanAdapter--><path d="M210.273,209 C197.373,225.279 180.012,247.187 166.366,264.408 " fill="none" id="TRuDICore-HanAdapter" style="stroke: #A80036; stroke-width: 1.0;"/><polygon fill="#A80036" points="162.981,268.678,171.706,264.1092,166.0867,264.7595,165.4364,259.1401,162.981,268.678" style="stroke: #A80036; stroke-width: 1.0;"/><!--link TRuDICore to TafAdapter--><path d="M244.34,209 C255.551,225.279 270.638,247.187 282.498,264.408 " fill="none" id="TRuDICore-TafAdapter" style="stroke: #A80036; stroke-width: 1.0;"/><polygon fill="#A80036" points="285.439,268.678,283.6281,258.997,282.6028,264.5602,277.0397,263.5349,285.439,268.678" style="stroke: #A80036; stroke-width: 1.0;"/><!--link Lieferant to LieferantenXml--><path d="M491.5,93.06 C491.5,115.398 491.5,142.106 491.5,160.778 " fill="none" id="Lieferant-LieferantenXml" style="stroke: #A80036; stroke-width: 1.0;"/><polygon fill="#A80036" points="491.5,165.821,495.5,156.821,491.5,160.821,487.5,156.821,491.5,165.821" style="stroke: #A80036; stroke-width: 1.0;"/><!--link LieferantenXml to TafAdapter--><path d="M458.838,204.222 C428.172,221.33 381.991,247.095 347.583,266.291 " fill="none" id="LieferantenXml-TafAdapter" style="stroke: #A80036; stroke-width: 1.0;"/><polygon fill="#A80036" points="343.022,268.835,352.8304,267.9431,347.3884,266.3989,348.9326,260.9569,343.022,268.835" style="stroke: #A80036; stroke-width: 1.0;"/><!--link Letztverbraucher to TRuDI--><path d="M59.5,93.06 C59.5,97.7655 59.5,102.6649 59.5,107.6423 C59.5,110.1309 59.5,112.6391 59.5,115.1522 C59.5,115.4664 59.5,115.7806 59.5,116.0949 C59.5,116.252 59.5,116.4092 59.5,116.5663 " fill="none" id="Letztverbraucher-TRuDI" style="stroke: #A80036; stroke-width: 1.0;"/><polygon fill="#A80036" points="59.5,116.5663,63.5,107.5663,59.5,111.5663,55.5,107.5663,59.5,116.5663" style="stroke: #A80036; stroke-width: 1.0;"/><!--link HanAdapter to Smgw--><path d="M144.5,317 C144.5,333.003 144.5,354.4461 144.5,371.528 " fill="none" id="HanAdapter-Smgw" style="stroke: #A80036; stroke-width: 1.0;"/><polygon fill="#A80036" points="144.5,376.6784,148.5,367.6784,144.5,371.6784,140.5,367.6784,144.5,376.6784" style="stroke: #A80036; stroke-width: 1.0;"/><!--
@startuml

skinparam componentStyle uml2

:Letztverbraucher:
:Lieferant: as Lieferant
node "Smart Meter Gateway" as Smgw

frame TRuDI {
    component "TRuDI-Hauptprogramm" as TRuDICore
    component "HAN-Adapter" as HanAdapter
    component "TAF-Adapter" as TafAdapter

    TRuDICore - -> HanAdapter
    TRuDICore - -> TafAdapter
}

file "Lieferanten-XML-Datei" as LieferantenXml
Lieferant - -> LieferantenXml 
LieferantenXml - -> TafAdapter
Letztverbraucher - -> TRuDI
HanAdapter - -> Smgw


@enduml

PlantUML version 1.2017.20(Mon Dec 11 17:57:05 CET 2017)
(GPL source distribution)
Java Runtime: Java(TM) SE Runtime Environment
JVM: Java HotSpot(TM) 64-Bit Server VM
Java Version: 1.8.0_151-b12
Operating System: Windows 10
OS Version: 10.0
Default Encoding: Cp1252
Language: de
Country: DE
--></g></svg>