<?xml version="1.0" encoding="UTF-8" standalone="no"?><svg xmlns="http://www.w3.org/2000/svg" xmlns:xlink="http://www.w3.org/1999/xlink" contentScriptType="application/ecmascript" contentStyleType="text/css" height="886px" preserveAspectRatio="none" style="width:1342px;height:886px;" version="1.1" viewBox="0 0 1342 886" width="1342px" zoomAndPan="magnify"><defs><filter height="300%" id="f7x26safw5wb6" width="300%" x="-1" y="-1"><feGaussianBlur result="blurOut" stdDeviation="2.0"/><feColorMatrix in="blurOut" result="blurOut2" type="matrix" values="0 0 0 0 0 0 0 0 0 0 0 0 0 0 0 0 0 0 .4 0"/><feOffset dx="4.0" dy="4.0" in="blurOut2" result="blurOut3"/><feBlend in="SourceGraphic" in2="blurOut3" mode="normal"/></filter></defs><g><rect fill="#ADD8E6" height="871.1172" style="stroke: #A80036; stroke-width: 1.0;" width="656" x="217" y="4"/><text fill="#000000" font-family="sans-serif" font-size="13" font-weight="bold" lengthAdjust="spacingAndGlyphs" textLength="38" x="526" y="17.4951">Views</text><rect fill="#FFFFFF" filter="url(#f7x26safw5wb6)" height="44.7031" style="stroke: #A80036; stroke-width: 1.0;" width="10" x="276.5" y="128.1797"/><rect fill="#FFFFFF" filter="url(#f7x26safw5wb6)" height="44.3516" style="stroke: #A80036; stroke-width: 1.0;" width="10" x="393.5" y="172.8828"/><rect fill="#FFFFFF" filter="url(#f7x26safw5wb6)" height="44.3516" style="stroke: #A80036; stroke-width: 1.0;" width="10" x="500.5" y="217.2344"/><rect fill="#FFFFFF" filter="url(#f7x26safw5wb6)" height="121.0547" style="stroke: #A80036; stroke-width: 1.0;" width="10" x="596.5" y="261.5859"/><rect fill="#FFFFFF" filter="url(#f7x26safw5wb6)" height="9" style="stroke: #A80036; stroke-width: 1.0;" width="10" x="755" y="769.5078"/><rect fill="#FFFFFF" filter="url(#f7x26safw5wb6)" height="372.8672" style="stroke: #A80036; stroke-width: 1.0;" width="10" x="826.5" y="382.6406"/><rect fill="#FFFFFF" filter="url(#f7x26safw5wb6)" height="417.2188" style="stroke: #A80036; stroke-width: 1.0;" width="10" x="934" y="352.2891"/><rect fill="#FFFFFF" filter="url(#f7x26safw5wb6)" height="44.7031" style="stroke: #A80036; stroke-width: 1.0;" width="10" x="1170" y="412.9922"/><rect fill="#FFFFFF" filter="url(#f7x26safw5wb6)" height="75.0547" style="stroke: #A80036; stroke-width: 1.0;" width="10" x="1170" y="487.6953"/><rect fill="#FFFFFF" filter="url(#f7x26safw5wb6)" height="75.0547" style="stroke: #A80036; stroke-width: 1.0;" width="10" x="1170" y="636.1016"/><rect fill="#FFFFFF" filter="url(#f7x26safw5wb6)" height="14.3516" style="stroke: #A80036; stroke-width: 1.0;" width="10" x="1280" y="741.1563"/><line style="stroke: #A80036; stroke-width: 1.0; stroke-dasharray: 5.0,5.0;" x1="64" x2="64" y1="96.1797" y2="787.5078"/><line style="stroke: #A80036; stroke-width: 1.0; stroke-dasharray: 5.0,5.0;" x1="281" x2="281" y1="96.1797" y2="787.5078"/><line style="stroke: #A80036; stroke-width: 1.0; stroke-dasharray: 5.0,5.0;" x1="398" x2="398" y1="96.1797" y2="787.5078"/><line style="stroke: #A80036; stroke-width: 1.0; stroke-dasharray: 5.0,5.0;" x1="505" x2="505" y1="96.1797" y2="787.5078"/><line style="stroke: #A80036; stroke-width: 1.0; stroke-dasharray: 5.0,5.0;" x1="601" x2="601" y1="96.1797" y2="787.5078"/><line style="stroke: #A80036; stroke-width: 1.0; stroke-dasharray: 5.0,5.0;" x1="686" x2="686" y1="96.1797" y2="787.5078"/><line style="stroke: #A80036; stroke-width: 1.0; stroke-dasharray: 5.0,5.0;" x1="760" x2="760" y1="96.1797" y2="787.5078"/><line style="stroke: #A80036; stroke-width: 1.0; stroke-dasharray: 5.0,5.0;" x1="831" x2="831" y1="96.1797" y2="787.5078"/><line style="stroke: #A80036; stroke-width: 1.0; stroke-dasharray: 5.0,5.0;" x1="939" x2="939" y1="96.1797" y2="787.5078"/><line style="stroke: #A80036; stroke-width: 1.0; stroke-dasharray: 5.0,5.0;" x1="1175" x2="1175" y1="96.1797" y2="787.5078"/><line style="stroke: #A80036; stroke-width: 1.0; stroke-dasharray: 5.0,5.0;" x1="1285" x2="1285" y1="96.1797" y2="787.5078"/><text fill="#000000" font-family="sans-serif" font-size="14" lengthAdjust="spacingAndGlyphs" textLength="107" x="8" y="93.1035">Letztverbraucher</text><ellipse cx="64.5" cy="21.5703" fill="#FEFECE" filter="url(#f7x26safw5wb6)" rx="8" ry="8" style="stroke: #A80036; stroke-width: 2.0;"/><path d="M64.5,29.5703 L64.5,56.5703 M51.5,37.5703 L77.5,37.5703 M64.5,56.5703 L51.5,71.5703 M64.5,56.5703 L77.5,71.5703 " fill="#FEFECE" filter="url(#f7x26safw5wb6)" style="stroke: #A80036; stroke-width: 2.0;"/><text fill="#000000" font-family="sans-serif" font-size="14" lengthAdjust="spacingAndGlyphs" textLength="107" x="8" y="801.041">Letztverbraucher</text><ellipse cx="64.5" cy="814.1172" fill="#FEFECE" filter="url(#f7x26safw5wb6)" rx="8" ry="8" style="stroke: #A80036; stroke-width: 2.0;"/><path d="M64.5,822.1172 L64.5,849.1172 M51.5,830.1172 L77.5,830.1172 M64.5,849.1172 L51.5,864.1172 M64.5,849.1172 L77.5,864.1172 " fill="#FEFECE" filter="url(#f7x26safw5wb6)" style="stroke: #A80036; stroke-width: 2.0;"/><rect fill="#FEFECE" filter="url(#f7x26safw5wb6)" height="49.2188" style="stroke: #A80036; stroke-width: 1.5;" width="117" x="221" y="41.9609"/><text fill="#000000" font-family="sans-serif" font-size="14" lengthAdjust="spacingAndGlyphs" textLength="103" x="228" y="63.4941">OperatingMode-</text><text fill="#000000" font-family="sans-serif" font-size="14" lengthAdjust="spacingAndGlyphs" textLength="58" x="250.5" y="81.1035">Selection</text><rect fill="#FEFECE" filter="url(#f7x26safw5wb6)" height="49.2188" style="stroke: #A80036; stroke-width: 1.5;" width="117" x="221" y="786.5078"/><text fill="#000000" font-family="sans-serif" font-size="14" lengthAdjust="spacingAndGlyphs" textLength="103" x="228" y="808.041">OperatingMode-</text><text fill="#000000" font-family="sans-serif" font-size="14" lengthAdjust="spacingAndGlyphs" textLength="58" x="250.5" y="825.6504">Selection</text><rect fill="#FEFECE" filter="url(#f7x26safw5wb6)" height="31.6094" style="stroke: #A80036; stroke-width: 1.5;" width="89" x="352" y="59.5703"/><text fill="#000000" font-family="sans-serif" font-size="14" lengthAdjust="spacingAndGlyphs" textLength="75" x="359" y="81.1035">SupplierFile</text><rect fill="#FEFECE" filter="url(#f7x26safw5wb6)" height="31.6094" style="stroke: #A80036; stroke-width: 1.5;" width="89" x="352" y="786.5078"/><text fill="#000000" font-family="sans-serif" font-size="14" lengthAdjust="spacingAndGlyphs" textLength="75" x="359" y="808.041">SupplierFile</text><rect fill="#FEFECE" filter="url(#f7x26safw5wb6)" height="66.8281" style="stroke: #A80036; stroke-width: 1.5;" width="97" x="455" y="24.3516"/><text fill="#000000" font-family="sans-serif" font-size="14" lengthAdjust="spacingAndGlyphs" textLength="75" x="466" y="45.8848">SupplierFile</text><text fill="#000000" font-family="sans-serif" font-size="14" lengthAdjust="spacingAndGlyphs" textLength="83" x="462" y="63.4941">BillingPeriod-</text><text fill="#000000" font-family="sans-serif" font-size="14" lengthAdjust="spacingAndGlyphs" textLength="58" x="474.5" y="81.1035">Selection</text><rect fill="#FEFECE" filter="url(#f7x26safw5wb6)" height="66.8281" style="stroke: #A80036; stroke-width: 1.5;" width="97" x="455" y="786.5078"/><text fill="#000000" font-family="sans-serif" font-size="14" lengthAdjust="spacingAndGlyphs" textLength="75" x="466" y="808.041">SupplierFile</text><text fill="#000000" font-family="sans-serif" font-size="14" lengthAdjust="spacingAndGlyphs" textLength="83" x="462" y="825.6504">BillingPeriod-</text><text fill="#000000" font-family="sans-serif" font-size="14" lengthAdjust="spacingAndGlyphs" textLength="58" x="474.5" y="843.2598">Selection</text><rect fill="#FEFECE" filter="url(#f7x26safw5wb6)" height="31.6094" style="stroke: #A80036; stroke-width: 1.5;" width="67" x="566" y="59.5703"/><text fill="#000000" font-family="sans-serif" font-size="14" lengthAdjust="spacingAndGlyphs" textLength="53" x="573" y="81.1035">Connect</text><rect fill="#FEFECE" filter="url(#f7x26safw5wb6)" height="31.6094" style="stroke: #A80036; stroke-width: 1.5;" width="67" x="566" y="786.5078"/><text fill="#000000" font-family="sans-serif" font-size="14" lengthAdjust="spacingAndGlyphs" textLength="53" x="573" y="808.041">Connect</text><rect fill="#FEFECE" filter="url(#f7x26safw5wb6)" height="31.6094" style="stroke: #A80036; stroke-width: 1.5;" width="75" x="647" y="59.5703"/><text fill="#000000" font-family="sans-serif" font-size="14" lengthAdjust="spacingAndGlyphs" textLength="61" x="654" y="81.1035">Contracts</text><rect fill="#FEFECE" filter="url(#f7x26safw5wb6)" height="31.6094" style="stroke: #A80036; stroke-width: 1.5;" width="75" x="647" y="786.5078"/><text fill="#000000" font-family="sans-serif" font-size="14" lengthAdjust="spacingAndGlyphs" textLength="61" x="654" y="808.041">Contracts</text><rect fill="#FEFECE" filter="url(#f7x26safw5wb6)" height="31.6094" style="stroke: #A80036; stroke-width: 1.5;" width="44" x="736" y="59.5703"/><text fill="#000000" font-family="sans-serif" font-size="14" lengthAdjust="spacingAndGlyphs" textLength="30" x="743" y="81.1035">Data</text><rect fill="#FEFECE" filter="url(#f7x26safw5wb6)" height="31.6094" style="stroke: #A80036; stroke-width: 1.5;" width="44" x="736" y="786.5078"/><text fill="#000000" font-family="sans-serif" font-size="14" lengthAdjust="spacingAndGlyphs" textLength="30" x="743" y="808.041">Data</text><rect fill="#FEFECE" filter="url(#f7x26safw5wb6)" height="31.6094" style="stroke: #A80036; stroke-width: 1.5;" width="71" x="794" y="59.5703"/><text fill="#000000" font-family="sans-serif" font-size="14" lengthAdjust="spacingAndGlyphs" textLength="57" x="801" y="81.1035">Progress</text><rect fill="#FEFECE" filter="url(#f7x26safw5wb6)" height="31.6094" style="stroke: #A80036; stroke-width: 1.5;" width="71" x="794" y="786.5078"/><text fill="#000000" font-family="sans-serif" font-size="14" lengthAdjust="spacingAndGlyphs" textLength="57" x="801" y="808.041">Progress</text><rect fill="#FEFECE" filter="url(#f7x26safw5wb6)" height="31.6094" style="stroke: #A80036; stroke-width: 1.5;" width="116" x="879" y="59.5703"/><text fill="#000000" font-family="sans-serif" font-size="14" lengthAdjust="spacingAndGlyphs" textLength="102" x="886" y="81.1035">ApplicationState</text><rect fill="#FEFECE" filter="url(#f7x26safw5wb6)" height="31.6094" style="stroke: #A80036; stroke-width: 1.5;" width="116" x="879" y="786.5078"/><text fill="#000000" font-family="sans-serif" font-size="14" lengthAdjust="spacingAndGlyphs" textLength="102" x="886" y="808.041">ApplicationState</text><rect fill="#FEFECE" filter="url(#f7x26safw5wb6)" height="31.6094" style="stroke: #A80036; stroke-width: 1.5;" width="96" x="1125" y="59.5703"/><text fill="#000000" font-family="sans-serif" font-size="14" lengthAdjust="spacingAndGlyphs" textLength="82" x="1132" y="81.1035">HAN-Adapter</text><rect fill="#FEFECE" filter="url(#f7x26safw5wb6)" height="31.6094" style="stroke: #A80036; stroke-width: 1.5;" width="96" x="1125" y="786.5078"/><text fill="#000000" font-family="sans-serif" font-size="14" lengthAdjust="spacingAndGlyphs" textLength="82" x="1132" y="808.041">HAN-Adapter</text><rect fill="#FEFECE" filter="url(#f7x26safw5wb6)" height="31.6094" style="stroke: #A80036; stroke-width: 1.5;" width="96" x="1235" y="59.5703"/><text fill="#000000" font-family="sans-serif" font-size="14" lengthAdjust="spacingAndGlyphs" textLength="82" x="1242" y="81.1035">TAF-Adapter</text><rect fill="#FEFECE" filter="url(#f7x26safw5wb6)" height="31.6094" style="stroke: #A80036; stroke-width: 1.5;" width="96" x="1235" y="786.5078"/><text fill="#000000" font-family="sans-serif" font-size="14" lengthAdjust="spacingAndGlyphs" textLength="82" x="1242" y="808.041">TAF-Adapter</text><rect fill="#FFFFFF" filter="url(#f7x26safw5wb6)" height="44.7031" style="stroke: #A80036; stroke-width: 1.0;" width="10" x="276.5" y="128.1797"/><rect fill="#FFFFFF" filter="url(#f7x26safw5wb6)" height="44.3516" style="stroke: #A80036; stroke-width: 1.0;" width="10" x="393.5" y="172.8828"/><rect fill="#FFFFFF" filter="url(#f7x26safw5wb6)" height="44.3516" style="stroke: #A80036; stroke-width: 1.0;" width="10" x="500.5" y="217.2344"/><rect fill="#FFFFFF" filter="url(#f7x26safw5wb6)" height="121.0547" style="stroke: #A80036; stroke-width: 1.0;" width="10" x="596.5" y="261.5859"/><rect fill="#FFFFFF" filter="url(#f7x26safw5wb6)" height="9" style="stroke: #A80036; stroke-width: 1.0;" width="10" x="755" y="769.5078"/><rect fill="#FFFFFF" filter="url(#f7x26safw5wb6)" height="372.8672" style="stroke: #A80036; stroke-width: 1.0;" width="10" x="826.5" y="382.6406"/><rect fill="#FFFFFF" filter="url(#f7x26safw5wb6)" height="417.2188" style="stroke: #A80036; stroke-width: 1.0;" width="10" x="934" y="352.2891"/><rect fill="#FFFFFF" filter="url(#f7x26safw5wb6)" height="44.7031" style="stroke: #A80036; stroke-width: 1.0;" width="10" x="1170" y="412.9922"/><rect fill="#FFFFFF" filter="url(#f7x26safw5wb6)" height="75.0547" style="stroke: #A80036; stroke-width: 1.0;" width="10" x="1170" y="487.6953"/><rect fill="#FFFFFF" filter="url(#f7x26safw5wb6)" height="75.0547" style="stroke: #A80036; stroke-width: 1.0;" width="10" x="1170" y="636.1016"/><rect fill="#FFFFFF" filter="url(#f7x26safw5wb6)" height="14.3516" style="stroke: #A80036; stroke-width: 1.0;" width="10" x="1280" y="741.1563"/><polygon fill="#A80036" points="264.5,124.1797,274.5,128.1797,264.5,132.1797,268.5,128.1797" style="stroke: #A80036; stroke-width: 1.0;"/><line style="stroke: #A80036; stroke-width: 1.0;" x1="64.5" x2="270.5" y1="128.1797" y2="128.1797"/><text fill="#000000" font-family="sans-serif" font-size="13" lengthAdjust="spacingAndGlyphs" textLength="78" x="71.5" y="123.6748">Startet TRuDI</text><polygon fill="#A80036" points="264.5,154.5313,274.5,158.5313,264.5,162.5313,268.5,158.5313" style="stroke: #A80036; stroke-width: 1.0;"/><line style="stroke: #A80036; stroke-width: 1.0;" x1="64.5" x2="270.5" y1="158.5313" y2="158.5313"/><text fill="#000000" font-family="sans-serif" font-size="13" lengthAdjust="spacingAndGlyphs" textLength="188" x="71.5" y="154.0264">W채hlt Transparenz-Funktion aus</text><polygon fill="#A80036" points="381.5,168.8828,391.5,172.8828,381.5,176.8828,385.5,172.8828" style="stroke: #A80036; stroke-width: 1.0;"/><line style="stroke: #A80036; stroke-width: 1.0;" x1="281.5" x2="387.5" y1="172.8828" y2="172.8828"/><polygon fill="#A80036" points="381.5,198.8828,391.5,202.8828,381.5,206.8828,385.5,202.8828" style="stroke: #A80036; stroke-width: 1.0;"/><line style="stroke: #A80036; stroke-width: 1.0;" x1="64.5" x2="387.5" y1="202.8828" y2="202.8828"/><text fill="#000000" font-family="sans-serif" font-size="13" lengthAdjust="spacingAndGlyphs" textLength="93" x="71.5" y="198.3779">W채hlt Datei aus</text><polygon fill="#A80036" points="488.5,213.2344,498.5,217.2344,488.5,221.2344,492.5,217.2344" style="stroke: #A80036; stroke-width: 1.0;"/><line style="stroke: #A80036; stroke-width: 1.0;" x1="398.5" x2="494.5" y1="217.2344" y2="217.2344"/><polygon fill="#A80036" points="488.5,243.2344,498.5,247.2344,488.5,251.2344,492.5,247.2344" style="stroke: #A80036; stroke-width: 1.0;"/><line style="stroke: #A80036; stroke-width: 1.0;" x1="64.5" x2="494.5" y1="247.2344" y2="247.2344"/><text fill="#000000" font-family="sans-serif" font-size="13" lengthAdjust="spacingAndGlyphs" textLength="109" x="71.5" y="242.7295">"Messdaten laden"</text><polygon fill="#A80036" points="584.5,257.5859,594.5,261.5859,584.5,265.5859,588.5,261.5859" style="stroke: #A80036; stroke-width: 1.0;"/><line style="stroke: #A80036; stroke-width: 1.0;" x1="505.5" x2="590.5" y1="261.5859" y2="261.5859"/><polygon fill="#A80036" points="584.5,287.5859,594.5,291.5859,584.5,295.5859,588.5,291.5859" style="stroke: #A80036; stroke-width: 1.0;"/><line style="stroke: #A80036; stroke-width: 1.0;" x1="64.5" x2="590.5" y1="291.5859" y2="291.5859"/><text fill="#000000" font-family="sans-serif" font-size="13" lengthAdjust="spacingAndGlyphs" textLength="153" x="71.5" y="287.0811">Gibt Verbindungsdaten ein</text><polygon fill="#A80036" points="584.5,317.9375,594.5,321.9375,584.5,325.9375,588.5,321.9375" style="stroke: #A80036; stroke-width: 1.0;"/><line style="stroke: #A80036; stroke-width: 1.0;" x1="64.5" x2="590.5" y1="321.9375" y2="321.9375"/><text fill="#000000" font-family="sans-serif" font-size="13" lengthAdjust="spacingAndGlyphs" textLength="58" x="71.5" y="317.4326">Verbinden</text><line style="stroke: #A80036; stroke-width: 1.0;" x1="932" x2="922" y1="352.2891" y2="348.2891"/><line style="stroke: #A80036; stroke-width: 1.0;" x1="932" x2="922" y1="352.2891" y2="356.2891"/><line style="stroke: #A80036; stroke-width: 1.0;" x1="606.5" x2="933" y1="352.2891" y2="352.2891"/><text fill="#000000" font-family="sans-serif" font-size="13" lengthAdjust="spacingAndGlyphs" textLength="163" x="613.5" y="347.7842">ConnectAndLoadContracts()</text><line style="stroke: #A80036; stroke-width: 1.0;" x1="824.5" x2="814.5" y1="382.6406" y2="378.6406"/><line style="stroke: #A80036; stroke-width: 1.0;" x1="824.5" x2="814.5" y1="382.6406" y2="386.6406"/><line style="stroke: #A80036; stroke-width: 1.0;" x1="601.5" x2="825.5" y1="382.6406" y2="382.6406"/><text fill="#000000" font-family="sans-serif" font-size="13" lengthAdjust="spacingAndGlyphs" textLength="54" x="608.5" y="378.1357">Anzeigen</text><polygon fill="#A80036" points="1158,408.9922,1168,412.9922,1158,416.9922,1162,412.9922" style="stroke: #A80036; stroke-width: 1.0;"/><line style="stroke: #A80036; stroke-width: 1.0;" x1="944" x2="1164" y1="412.9922" y2="412.9922"/><text fill="#000000" font-family="sans-serif" font-size="13" lengthAdjust="spacingAndGlyphs" textLength="56" x="951" y="408.4873">Connect()</text><line style="stroke: #A80036; stroke-width: 1.0;" x1="836.5" x2="846.5" y1="443.3438" y2="439.3438"/><line style="stroke: #A80036; stroke-width: 1.0;" x1="836.5" x2="846.5" y1="443.3438" y2="447.3438"/><line style="stroke: #A80036; stroke-width: 1.0; stroke-dasharray: 2.0,2.0;" x1="836.5" x2="1169" y1="443.3438" y2="443.3438"/><text fill="#000000" font-family="sans-serif" font-size="13" lengthAdjust="spacingAndGlyphs" textLength="110" x="853.5" y="438.8389">ProgressCallback()</text><polygon fill="#A80036" points="955,453.6953,945,457.6953,955,461.6953,951,457.6953" style="stroke: #A80036; stroke-width: 1.0;"/><line style="stroke: #A80036; stroke-width: 1.0; stroke-dasharray: 2.0,2.0;" x1="949" x2="1174" y1="457.6953" y2="457.6953"/><polygon fill="#A80036" points="1158,483.6953,1168,487.6953,1158,491.6953,1162,487.6953" style="stroke: #A80036; stroke-width: 1.0;"/><line style="stroke: #A80036; stroke-width: 1.0;" x1="944" x2="1164" y1="487.6953" y2="487.6953"/><text fill="#000000" font-family="sans-serif" font-size="13" lengthAdjust="spacingAndGlyphs" textLength="143" x="951" y="483.1904">LoadAvailableContracts()</text><line style="stroke: #A80036; stroke-width: 1.0;" x1="836.5" x2="846.5" y1="518.0469" y2="514.0469"/><line style="stroke: #A80036; stroke-width: 1.0;" x1="836.5" x2="846.5" y1="518.0469" y2="522.0469"/><line style="stroke: #A80036; stroke-width: 1.0; stroke-dasharray: 2.0,2.0;" x1="836.5" x2="1169" y1="518.0469" y2="518.0469"/><text fill="#000000" font-family="sans-serif" font-size="13" lengthAdjust="spacingAndGlyphs" textLength="110" x="853.5" y="513.542">ProgressCallback()</text><line style="stroke: #A80036; stroke-width: 1.0;" x1="836.5" x2="846.5" y1="548.3984" y2="544.3984"/><line style="stroke: #A80036; stroke-width: 1.0;" x1="836.5" x2="846.5" y1="548.3984" y2="552.3984"/><line style="stroke: #A80036; stroke-width: 1.0; stroke-dasharray: 2.0,2.0;" x1="836.5" x2="1169" y1="548.3984" y2="548.3984"/><text fill="#000000" font-family="sans-serif" font-size="13" lengthAdjust="spacingAndGlyphs" textLength="110" x="853.5" y="543.8936">ProgressCallback()</text><polygon fill="#A80036" points="955,558.75,945,562.75,955,566.75,951,562.75" style="stroke: #A80036; stroke-width: 1.0;"/><line style="stroke: #A80036; stroke-width: 1.0; stroke-dasharray: 2.0,2.0;" x1="949" x2="1174" y1="562.75" y2="562.75"/><line style="stroke: #A80036; stroke-width: 1.0;" x1="944" x2="986" y1="593.1016" y2="593.1016"/><line style="stroke: #A80036; stroke-width: 1.0;" x1="986" x2="986" y1="593.1016" y2="606.1016"/><line style="stroke: #A80036; stroke-width: 1.0;" x1="945" x2="986" y1="606.1016" y2="606.1016"/><polygon fill="#A80036" points="955,602.1016,945,606.1016,955,610.1016,951,606.1016" style="stroke: #A80036; stroke-width: 1.0;"/><text fill="#000000" font-family="sans-serif" font-size="13" lengthAdjust="spacingAndGlyphs" textLength="212" x="951" y="588.2451">Vertrag in den SMGW-Daten suchen</text><polygon fill="#A80036" points="1158,632.1016,1168,636.1016,1158,640.1016,1162,636.1016" style="stroke: #A80036; stroke-width: 1.0;"/><line style="stroke: #A80036; stroke-width: 1.0;" x1="944" x2="1164" y1="636.1016" y2="636.1016"/><text fill="#000000" font-family="sans-serif" font-size="13" lengthAdjust="spacingAndGlyphs" textLength="63" x="951" y="631.5967">LoadData()</text><line style="stroke: #A80036; stroke-width: 1.0;" x1="836.5" x2="846.5" y1="666.4531" y2="662.4531"/><line style="stroke: #A80036; stroke-width: 1.0;" x1="836.5" x2="846.5" y1="666.4531" y2="670.4531"/><line style="stroke: #A80036; stroke-width: 1.0; stroke-dasharray: 2.0,2.0;" x1="836.5" x2="1169" y1="666.4531" y2="666.4531"/><text fill="#000000" font-family="sans-serif" font-size="13" lengthAdjust="spacingAndGlyphs" textLength="110" x="853.5" y="661.9482">ProgressCallback()</text><line style="stroke: #A80036; stroke-width: 1.0;" x1="836.5" x2="846.5" y1="696.8047" y2="692.8047"/><line style="stroke: #A80036; stroke-width: 1.0;" x1="836.5" x2="846.5" y1="696.8047" y2="700.8047"/><line style="stroke: #A80036; stroke-width: 1.0; stroke-dasharray: 2.0,2.0;" x1="836.5" x2="1169" y1="696.8047" y2="696.8047"/><text fill="#000000" font-family="sans-serif" font-size="13" lengthAdjust="spacingAndGlyphs" textLength="110" x="853.5" y="692.2998">ProgressCallback()</text><polygon fill="#A80036" points="955,707.1563,945,711.1563,955,715.1563,951,711.1563" style="stroke: #A80036; stroke-width: 1.0;"/><line style="stroke: #A80036; stroke-width: 1.0; stroke-dasharray: 2.0,2.0;" x1="949" x2="1174" y1="711.1563" y2="711.1563"/><polygon fill="#A80036" points="1268,737.1563,1278,741.1563,1268,745.1563,1272,741.1563" style="stroke: #A80036; stroke-width: 1.0;"/><line style="stroke: #A80036; stroke-width: 1.0;" x1="944" x2="1274" y1="741.1563" y2="741.1563"/><text fill="#000000" font-family="sans-serif" font-size="13" lengthAdjust="spacingAndGlyphs" textLength="62" x="951" y="736.6514">Calculate()</text><polygon fill="#A80036" points="955,751.5078,945,755.5078,955,759.5078,951,755.5078" style="stroke: #A80036; stroke-width: 1.0;"/><line style="stroke: #A80036; stroke-width: 1.0; stroke-dasharray: 2.0,2.0;" x1="949" x2="1284" y1="755.5078" y2="755.5078"/><polygon fill="#A80036" points="776,765.5078,766,769.5078,776,773.5078,772,769.5078" style="stroke: #A80036; stroke-width: 1.0;"/><line style="stroke: #A80036; stroke-width: 1.0;" x1="770" x2="938" y1="769.5078" y2="769.5078"/><!--
@startuml


actor Letztverbraucher

box "Views" #LightBlue
    participant "OperatingMode-\nSelection" as OpModSelView 
    participant "SupplierFile" as SupplierFileView
    participant "SupplierFile\nBillingPeriod-\nSelection" as BillingPeriodSelView 
    participant "Connect" as ConnectView 
    participant "Contracts" as ContractsView
    participant "Data" as DataView
    participant "Progress" as ProgressView
end box

participant "ApplicationState" as AppState
participant "HAN-Adapter" as HanAdapter
participant "TAF-Adapter" as TafAdapter

Letztverbraucher -> OpModSelView : Startet TRuDI
activate OpModSelView

Letztverbraucher -> OpModSelView : W채hlt Transparenz-Funktion aus
OpModSelView -> SupplierFileView
deactivate OpModSelView

activate SupplierFileView
Letztverbraucher -> SupplierFileView : W채hlt Datei aus

SupplierFileView -> BillingPeriodSelView
deactivate SupplierFileView

activate BillingPeriodSelView

Letztverbraucher -> BillingPeriodSelView : "Messdaten laden"
BillingPeriodSelView -> ConnectView

deactivate BillingPeriodSelView

activate ConnectView
Letztverbraucher -> ConnectView : Gibt Verbindungsdaten ein
Letztverbraucher -> ConnectView : Verbinden

ConnectView ->> AppState : ConnectAndLoadContracts()
activate AppState

ConnectView ->> ProgressView : Anzeigen
deactivate ConnectView
activate ProgressView

AppState -> HanAdapter : Connect()
activate HanAdapter
ProgressView <<- - HanAdapter : ProgressCallback()
AppState <- - HanAdapter
deactivate HanAdapter

AppState -> HanAdapter : LoadAvailableContracts()
activate HanAdapter
ProgressView <<- - HanAdapter : ProgressCallback()
ProgressView <<- - HanAdapter : ProgressCallback()
AppState <- - HanAdapter 
deactivate HanAdapter

AppState -> AppState : Vertrag in den SMGW-Daten suchen

AppState -> HanAdapter : LoadData()
activate HanAdapter
ProgressView <<- - HanAdapter : ProgressCallback()
ProgressView <<- - HanAdapter : ProgressCallback()
AppState <- - HanAdapter 
deactivate HanAdapter

AppState -> TafAdapter : Calculate()
activate TafAdapter
AppState <- - TafAdapter
deactivate TafAdapter

deactivate ProgressView

AppState -> DataView
deactivate AppState

activate DataView

@enduml

PlantUML version 1.2017.20(Mon Dec 11 17:57:05 CET 2017)
(GPL source distribution)
Java Runtime: Java(TM) SE Runtime Environment
JVM: Java HotSpot(TM) 64-Bit Server VM
Java Version: 1.8.0_161-b12
Operating System: Windows 10
OS Version: 10.0
Default Encoding: Cp1252
Language: de
Country: DE
--></g></svg>