<?xml version="1.0" encoding="UTF-8" standalone="no"?><svg xmlns="http://www.w3.org/2000/svg" xmlns:xlink="http://www.w3.org/1999/xlink" contentScriptType="application/ecmascript" contentStyleType="text/css" height="899px" preserveAspectRatio="none" style="width:961px;height:899px;" version="1.1" viewBox="0 0 961 899" width="961px" zoomAndPan="magnify"><defs><filter height="300%" id="fxz4t98q9l2va" width="300%" x="-1" y="-1"><feGaussianBlur result="blurOut" stdDeviation="2.0"/><feColorMatrix in="blurOut" result="blurOut2" type="matrix" values="0 0 0 0 0 0 0 0 0 0 0 0 0 0 0 0 0 0 .4 0"/><feOffset dx="4.0" dy="4.0" in="blurOut2" result="blurOut3"/><feBlend in="SourceGraphic" in2="blurOut3" mode="normal"/></filter></defs><g><rect fill="#ADD8E6" height="884.25" style="stroke: #A80036; stroke-width: 1.0;" width="442" x="189" y="4"/><text fill="#000000" font-family="sans-serif" font-size="13" font-weight="bold" lengthAdjust="spacingAndGlyphs" textLength="38" x="391" y="17.4951">Views</text><rect fill="#FFFFFF" filter="url(#fxz4t98q9l2va)" height="44.7031" style="stroke: #A80036; stroke-width: 1.0;" width="10" x="248.5" y="119.6094"/><rect fill="#FFFFFF" filter="url(#fxz4t98q9l2va)" height="121.0547" style="stroke: #A80036; stroke-width: 1.0;" width="10" x="354.5" y="164.3125"/><rect fill="#FFFFFF" filter="url(#fxz4t98q9l2va)" height="91.0547" style="stroke: #A80036; stroke-width: 1.0;" width="10" x="439.5" y="495.4766"/><rect fill="#FFFFFF" filter="url(#fxz4t98q9l2va)" height="9" style="stroke: #A80036; stroke-width: 1.0;" width="10" x="513" y="782.6406"/><rect fill="#FFFFFF" filter="url(#fxz4t98q9l2va)" height="210.1094" style="stroke: #A80036; stroke-width: 1.0;" width="10" x="584.5" y="285.3672"/><rect fill="#FFFFFF" filter="url(#fxz4t98q9l2va)" height="190.1094" style="stroke: #A80036; stroke-width: 1.0;" width="10" x="584.5" y="586.5313"/><rect fill="#FFFFFF" filter="url(#fxz4t98q9l2va)" height="240.4609" style="stroke: #A80036; stroke-width: 1.0;" width="10" x="692" y="255.0156"/><rect fill="#FFFFFF" filter="url(#fxz4t98q9l2va)" height="226.4609" style="stroke: #A80036; stroke-width: 1.0;" width="10" x="692" y="556.1797"/><rect fill="#FFFFFF" filter="url(#fxz4t98q9l2va)" height="44.7031" style="stroke: #A80036; stroke-width: 1.0;" width="10" x="885" y="315.7188"/><rect fill="#FFFFFF" filter="url(#fxz4t98q9l2va)" height="75.0547" style="stroke: #A80036; stroke-width: 1.0;" width="10" x="885" y="390.4219"/><rect fill="#FFFFFF" filter="url(#fxz4t98q9l2va)" height="159.7578" style="stroke: #A80036; stroke-width: 1.0;" width="10" x="885" y="616.8828"/><rect fill="#FFFFFF" filter="url(#fxz4t98q9l2va)" height="62.7031" style="stroke: #000000; stroke-width: 2.0;" width="323" x="627" y="706.9375"/><line style="stroke: #A80036; stroke-width: 1.0; stroke-dasharray: 5.0,5.0;" x1="64" x2="64" y1="87.6094" y2="800.6406"/><line style="stroke: #A80036; stroke-width: 1.0; stroke-dasharray: 5.0,5.0;" x1="253" x2="253" y1="87.6094" y2="800.6406"/><line style="stroke: #A80036; stroke-width: 1.0; stroke-dasharray: 5.0,5.0;" x1="359" x2="359" y1="87.6094" y2="800.6406"/><line style="stroke: #A80036; stroke-width: 1.0; stroke-dasharray: 5.0,5.0;" x1="444" x2="444" y1="87.6094" y2="800.6406"/><line style="stroke: #A80036; stroke-width: 1.0; stroke-dasharray: 5.0,5.0;" x1="518" x2="518" y1="87.6094" y2="800.6406"/><line style="stroke: #A80036; stroke-width: 1.0; stroke-dasharray: 5.0,5.0;" x1="589" x2="589" y1="87.6094" y2="800.6406"/><line style="stroke: #A80036; stroke-width: 1.0; stroke-dasharray: 5.0,5.0;" x1="697" x2="697" y1="87.6094" y2="800.6406"/><line style="stroke: #A80036; stroke-width: 1.0; stroke-dasharray: 5.0,5.0;" x1="890" x2="890" y1="87.6094" y2="800.6406"/><text fill="#000000" font-family="sans-serif" font-size="14" lengthAdjust="spacingAndGlyphs" textLength="107" x="8" y="84.5332">Letztverbraucher</text><ellipse cx="64.5" cy="13" fill="#FEFECE" filter="url(#fxz4t98q9l2va)" rx="8" ry="8" style="stroke: #A80036; stroke-width: 2.0;"/><path d="M64.5,21 L64.5,48 M51.5,29 L77.5,29 M64.5,48 L51.5,63 M64.5,48 L77.5,63 " fill="#FEFECE" filter="url(#fxz4t98q9l2va)" style="stroke: #A80036; stroke-width: 2.0;"/><text fill="#000000" font-family="sans-serif" font-size="14" lengthAdjust="spacingAndGlyphs" textLength="107" x="8" y="814.1738">Letztverbraucher</text><ellipse cx="64.5" cy="827.25" fill="#FEFECE" filter="url(#fxz4t98q9l2va)" rx="8" ry="8" style="stroke: #A80036; stroke-width: 2.0;"/><path d="M64.5,835.25 L64.5,862.25 M51.5,843.25 L77.5,843.25 M64.5,862.25 L51.5,877.25 M64.5,862.25 L77.5,877.25 " fill="#FEFECE" filter="url(#fxz4t98q9l2va)" style="stroke: #A80036; stroke-width: 2.0;"/><rect fill="#FEFECE" filter="url(#fxz4t98q9l2va)" height="49.2188" style="stroke: #A80036; stroke-width: 1.5;" width="117" x="193" y="33.3906"/><text fill="#000000" font-family="sans-serif" font-size="14" lengthAdjust="spacingAndGlyphs" textLength="103" x="200" y="54.9238">OperatingMode-</text><text fill="#000000" font-family="sans-serif" font-size="14" lengthAdjust="spacingAndGlyphs" textLength="58" x="222.5" y="72.5332">Selection</text><rect fill="#FEFECE" filter="url(#fxz4t98q9l2va)" height="49.2188" style="stroke: #A80036; stroke-width: 1.5;" width="117" x="193" y="799.6406"/><text fill="#000000" font-family="sans-serif" font-size="14" lengthAdjust="spacingAndGlyphs" textLength="103" x="200" y="821.1738">OperatingMode-</text><text fill="#000000" font-family="sans-serif" font-size="14" lengthAdjust="spacingAndGlyphs" textLength="58" x="222.5" y="838.7832">Selection</text><rect fill="#FEFECE" filter="url(#fxz4t98q9l2va)" height="31.6094" style="stroke: #A80036; stroke-width: 1.5;" width="67" x="324" y="51"/><text fill="#000000" font-family="sans-serif" font-size="14" lengthAdjust="spacingAndGlyphs" textLength="53" x="331" y="72.5332">Connect</text><rect fill="#FEFECE" filter="url(#fxz4t98q9l2va)" height="31.6094" style="stroke: #A80036; stroke-width: 1.5;" width="67" x="324" y="799.6406"/><text fill="#000000" font-family="sans-serif" font-size="14" lengthAdjust="spacingAndGlyphs" textLength="53" x="331" y="821.1738">Connect</text><rect fill="#FEFECE" filter="url(#fxz4t98q9l2va)" height="31.6094" style="stroke: #A80036; stroke-width: 1.5;" width="75" x="405" y="51"/><text fill="#000000" font-family="sans-serif" font-size="14" lengthAdjust="spacingAndGlyphs" textLength="61" x="412" y="72.5332">Contracts</text><rect fill="#FEFECE" filter="url(#fxz4t98q9l2va)" height="31.6094" style="stroke: #A80036; stroke-width: 1.5;" width="75" x="405" y="799.6406"/><text fill="#000000" font-family="sans-serif" font-size="14" lengthAdjust="spacingAndGlyphs" textLength="61" x="412" y="821.1738">Contracts</text><rect fill="#FEFECE" filter="url(#fxz4t98q9l2va)" height="31.6094" style="stroke: #A80036; stroke-width: 1.5;" width="44" x="494" y="51"/><text fill="#000000" font-family="sans-serif" font-size="14" lengthAdjust="spacingAndGlyphs" textLength="30" x="501" y="72.5332">Data</text><rect fill="#FEFECE" filter="url(#fxz4t98q9l2va)" height="31.6094" style="stroke: #A80036; stroke-width: 1.5;" width="44" x="494" y="799.6406"/><text fill="#000000" font-family="sans-serif" font-size="14" lengthAdjust="spacingAndGlyphs" textLength="30" x="501" y="821.1738">Data</text><rect fill="#FEFECE" filter="url(#fxz4t98q9l2va)" height="31.6094" style="stroke: #A80036; stroke-width: 1.5;" width="71" x="552" y="51"/><text fill="#000000" font-family="sans-serif" font-size="14" lengthAdjust="spacingAndGlyphs" textLength="57" x="559" y="72.5332">Progress</text><rect fill="#FEFECE" filter="url(#fxz4t98q9l2va)" height="31.6094" style="stroke: #A80036; stroke-width: 1.5;" width="71" x="552" y="799.6406"/><text fill="#000000" font-family="sans-serif" font-size="14" lengthAdjust="spacingAndGlyphs" textLength="57" x="559" y="821.1738">Progress</text><rect fill="#FEFECE" filter="url(#fxz4t98q9l2va)" height="31.6094" style="stroke: #A80036; stroke-width: 1.5;" width="116" x="637" y="51"/><text fill="#000000" font-family="sans-serif" font-size="14" lengthAdjust="spacingAndGlyphs" textLength="102" x="644" y="72.5332">ApplicationState</text><rect fill="#FEFECE" filter="url(#fxz4t98q9l2va)" height="31.6094" style="stroke: #A80036; stroke-width: 1.5;" width="116" x="637" y="799.6406"/><text fill="#000000" font-family="sans-serif" font-size="14" lengthAdjust="spacingAndGlyphs" textLength="102" x="644" y="821.1738">ApplicationState</text><rect fill="#FEFECE" filter="url(#fxz4t98q9l2va)" height="31.6094" style="stroke: #A80036; stroke-width: 1.5;" width="96" x="840" y="51"/><text fill="#000000" font-family="sans-serif" font-size="14" lengthAdjust="spacingAndGlyphs" textLength="82" x="847" y="72.5332">HAN-Adapter</text><rect fill="#FEFECE" filter="url(#fxz4t98q9l2va)" height="31.6094" style="stroke: #A80036; stroke-width: 1.5;" width="96" x="840" y="799.6406"/><text fill="#000000" font-family="sans-serif" font-size="14" lengthAdjust="spacingAndGlyphs" textLength="82" x="847" y="821.1738">HAN-Adapter</text><rect fill="#FFFFFF" filter="url(#fxz4t98q9l2va)" height="44.7031" style="stroke: #A80036; stroke-width: 1.0;" width="10" x="248.5" y="119.6094"/><rect fill="#FFFFFF" filter="url(#fxz4t98q9l2va)" height="121.0547" style="stroke: #A80036; stroke-width: 1.0;" width="10" x="354.5" y="164.3125"/><rect fill="#FFFFFF" filter="url(#fxz4t98q9l2va)" height="91.0547" style="stroke: #A80036; stroke-width: 1.0;" width="10" x="439.5" y="495.4766"/><rect fill="#FFFFFF" filter="url(#fxz4t98q9l2va)" height="9" style="stroke: #A80036; stroke-width: 1.0;" width="10" x="513" y="782.6406"/><rect fill="#FFFFFF" filter="url(#fxz4t98q9l2va)" height="210.1094" style="stroke: #A80036; stroke-width: 1.0;" width="10" x="584.5" y="285.3672"/><rect fill="#FFFFFF" filter="url(#fxz4t98q9l2va)" height="190.1094" style="stroke: #A80036; stroke-width: 1.0;" width="10" x="584.5" y="586.5313"/><rect fill="#FFFFFF" filter="url(#fxz4t98q9l2va)" height="240.4609" style="stroke: #A80036; stroke-width: 1.0;" width="10" x="692" y="255.0156"/><rect fill="#FFFFFF" filter="url(#fxz4t98q9l2va)" height="226.4609" style="stroke: #A80036; stroke-width: 1.0;" width="10" x="692" y="556.1797"/><rect fill="#FFFFFF" filter="url(#fxz4t98q9l2va)" height="44.7031" style="stroke: #A80036; stroke-width: 1.0;" width="10" x="885" y="315.7188"/><rect fill="#FFFFFF" filter="url(#fxz4t98q9l2va)" height="75.0547" style="stroke: #A80036; stroke-width: 1.0;" width="10" x="885" y="390.4219"/><rect fill="#FFFFFF" filter="url(#fxz4t98q9l2va)" height="159.7578" style="stroke: #A80036; stroke-width: 1.0;" width="10" x="885" y="616.8828"/><polygon fill="#A80036" points="236.5,115.6094,246.5,119.6094,236.5,123.6094,240.5,119.6094" style="stroke: #A80036; stroke-width: 1.0;"/><line style="stroke: #A80036; stroke-width: 1.0;" x1="64.5" x2="242.5" y1="119.6094" y2="119.6094"/><text fill="#000000" font-family="sans-serif" font-size="13" lengthAdjust="spacingAndGlyphs" textLength="78" x="71.5" y="115.1045">Startet TRuDI</text><polygon fill="#A80036" points="236.5,145.9609,246.5,149.9609,236.5,153.9609,240.5,149.9609" style="stroke: #A80036; stroke-width: 1.0;"/><line style="stroke: #A80036; stroke-width: 1.0;" x1="64.5" x2="242.5" y1="149.9609" y2="149.9609"/><text fill="#000000" font-family="sans-serif" font-size="13" lengthAdjust="spacingAndGlyphs" textLength="160" x="71.5" y="145.4561">W채hlt Display-Funktion aus</text><polygon fill="#A80036" points="342.5,160.3125,352.5,164.3125,342.5,168.3125,346.5,164.3125" style="stroke: #A80036; stroke-width: 1.0;"/><line style="stroke: #A80036; stroke-width: 1.0;" x1="253.5" x2="348.5" y1="164.3125" y2="164.3125"/><polygon fill="#A80036" points="342.5,190.3125,352.5,194.3125,342.5,198.3125,346.5,194.3125" style="stroke: #A80036; stroke-width: 1.0;"/><line style="stroke: #A80036; stroke-width: 1.0;" x1="64.5" x2="348.5" y1="194.3125" y2="194.3125"/><text fill="#000000" font-family="sans-serif" font-size="13" lengthAdjust="spacingAndGlyphs" textLength="153" x="71.5" y="189.8076">Gibt Verbindungsdaten ein</text><polygon fill="#A80036" points="342.5,220.6641,352.5,224.6641,342.5,228.6641,346.5,224.6641" style="stroke: #A80036; stroke-width: 1.0;"/><line style="stroke: #A80036; stroke-width: 1.0;" x1="64.5" x2="348.5" y1="224.6641" y2="224.6641"/><text fill="#000000" font-family="sans-serif" font-size="13" lengthAdjust="spacingAndGlyphs" textLength="58" x="71.5" y="220.1592">Verbinden</text><line style="stroke: #A80036; stroke-width: 1.0;" x1="690" x2="680" y1="255.0156" y2="251.0156"/><line style="stroke: #A80036; stroke-width: 1.0;" x1="690" x2="680" y1="255.0156" y2="259.0156"/><line style="stroke: #A80036; stroke-width: 1.0;" x1="364.5" x2="691" y1="255.0156" y2="255.0156"/><text fill="#000000" font-family="sans-serif" font-size="13" lengthAdjust="spacingAndGlyphs" textLength="163" x="371.5" y="250.5107">ConnectAndLoadContracts()</text><line style="stroke: #A80036; stroke-width: 1.0;" x1="582.5" x2="572.5" y1="285.3672" y2="281.3672"/><line style="stroke: #A80036; stroke-width: 1.0;" x1="582.5" x2="572.5" y1="285.3672" y2="289.3672"/><line style="stroke: #A80036; stroke-width: 1.0;" x1="359.5" x2="583.5" y1="285.3672" y2="285.3672"/><text fill="#000000" font-family="sans-serif" font-size="13" lengthAdjust="spacingAndGlyphs" textLength="54" x="366.5" y="280.8623">Anzeigen</text><polygon fill="#A80036" points="873,311.7188,883,315.7188,873,319.7188,877,315.7188" style="stroke: #A80036; stroke-width: 1.0;"/><line style="stroke: #A80036; stroke-width: 1.0;" x1="702" x2="879" y1="315.7188" y2="315.7188"/><text fill="#000000" font-family="sans-serif" font-size="13" lengthAdjust="spacingAndGlyphs" textLength="56" x="709" y="311.2139">Connect()</text><line style="stroke: #A80036; stroke-width: 1.0;" x1="594.5" x2="604.5" y1="346.0703" y2="342.0703"/><line style="stroke: #A80036; stroke-width: 1.0;" x1="594.5" x2="604.5" y1="346.0703" y2="350.0703"/><line style="stroke: #A80036; stroke-width: 1.0; stroke-dasharray: 2.0,2.0;" x1="594.5" x2="884" y1="346.0703" y2="346.0703"/><text fill="#000000" font-family="sans-serif" font-size="13" lengthAdjust="spacingAndGlyphs" textLength="110" x="611.5" y="341.5654">ProgressCallback()</text><polygon fill="#A80036" points="713,356.4219,703,360.4219,713,364.4219,709,360.4219" style="stroke: #A80036; stroke-width: 1.0;"/><line style="stroke: #A80036; stroke-width: 1.0; stroke-dasharray: 2.0,2.0;" x1="707" x2="889" y1="360.4219" y2="360.4219"/><polygon fill="#A80036" points="873,386.4219,883,390.4219,873,394.4219,877,390.4219" style="stroke: #A80036; stroke-width: 1.0;"/><line style="stroke: #A80036; stroke-width: 1.0;" x1="702" x2="879" y1="390.4219" y2="390.4219"/><text fill="#000000" font-family="sans-serif" font-size="13" lengthAdjust="spacingAndGlyphs" textLength="143" x="709" y="385.917">LoadAvailableContracts()</text><line style="stroke: #A80036; stroke-width: 1.0;" x1="594.5" x2="604.5" y1="420.7734" y2="416.7734"/><line style="stroke: #A80036; stroke-width: 1.0;" x1="594.5" x2="604.5" y1="420.7734" y2="424.7734"/><line style="stroke: #A80036; stroke-width: 1.0; stroke-dasharray: 2.0,2.0;" x1="594.5" x2="884" y1="420.7734" y2="420.7734"/><text fill="#000000" font-family="sans-serif" font-size="13" lengthAdjust="spacingAndGlyphs" textLength="110" x="611.5" y="416.2686">ProgressCallback()</text><line style="stroke: #A80036; stroke-width: 1.0;" x1="594.5" x2="604.5" y1="451.125" y2="447.125"/><line style="stroke: #A80036; stroke-width: 1.0;" x1="594.5" x2="604.5" y1="451.125" y2="455.125"/><line style="stroke: #A80036; stroke-width: 1.0; stroke-dasharray: 2.0,2.0;" x1="594.5" x2="884" y1="451.125" y2="451.125"/><text fill="#000000" font-family="sans-serif" font-size="13" lengthAdjust="spacingAndGlyphs" textLength="110" x="611.5" y="446.6201">ProgressCallback()</text><polygon fill="#A80036" points="713,461.4766,703,465.4766,713,469.4766,709,465.4766" style="stroke: #A80036; stroke-width: 1.0;"/><line style="stroke: #A80036; stroke-width: 1.0; stroke-dasharray: 2.0,2.0;" x1="707" x2="889" y1="465.4766" y2="465.4766"/><polygon fill="#A80036" points="460.5,491.4766,450.5,495.4766,460.5,499.4766,456.5,495.4766" style="stroke: #A80036; stroke-width: 1.0;"/><line style="stroke: #A80036; stroke-width: 1.0;" x1="454.5" x2="696" y1="495.4766" y2="495.4766"/><text fill="#000000" font-family="sans-serif" font-size="13" lengthAdjust="spacingAndGlyphs" textLength="54" x="466.5" y="490.9717">Anzeigen</text><polygon fill="#A80036" points="427.5,521.8281,437.5,525.8281,427.5,529.8281,431.5,525.8281" style="stroke: #A80036; stroke-width: 1.0;"/><line style="stroke: #A80036; stroke-width: 1.0;" x1="64.5" x2="433.5" y1="525.8281" y2="525.8281"/><text fill="#000000" font-family="sans-serif" font-size="13" lengthAdjust="spacingAndGlyphs" textLength="197" x="71.5" y="521.3232">W채hlt Vertrag und Zeitbereich aus</text><polygon fill="#A80036" points="680,552.1797,690,556.1797,680,560.1797,684,556.1797" style="stroke: #A80036; stroke-width: 1.0;"/><line style="stroke: #A80036; stroke-width: 1.0;" x1="449.5" x2="686" y1="556.1797" y2="556.1797"/><text fill="#000000" font-family="sans-serif" font-size="13" lengthAdjust="spacingAndGlyphs" textLength="63" x="456.5" y="551.6748">LoadData()</text><line style="stroke: #A80036; stroke-width: 1.0;" x1="582.5" x2="572.5" y1="586.5313" y2="582.5313"/><line style="stroke: #A80036; stroke-width: 1.0;" x1="582.5" x2="572.5" y1="586.5313" y2="590.5313"/><line style="stroke: #A80036; stroke-width: 1.0;" x1="444.5" x2="583.5" y1="586.5313" y2="586.5313"/><text fill="#000000" font-family="sans-serif" font-size="13" lengthAdjust="spacingAndGlyphs" textLength="54" x="451.5" y="582.0264">Anzeigen</text><polygon fill="#A80036" points="873,612.8828,883,616.8828,873,620.8828,877,616.8828" style="stroke: #A80036; stroke-width: 1.0;"/><line style="stroke: #A80036; stroke-width: 1.0;" x1="702" x2="879" y1="616.8828" y2="616.8828"/><text fill="#000000" font-family="sans-serif" font-size="13" lengthAdjust="spacingAndGlyphs" textLength="63" x="709" y="612.3779">LoadData()</text><line style="stroke: #A80036; stroke-width: 1.0;" x1="594.5" x2="604.5" y1="647.2344" y2="643.2344"/><line style="stroke: #A80036; stroke-width: 1.0;" x1="594.5" x2="604.5" y1="647.2344" y2="651.2344"/><line style="stroke: #A80036; stroke-width: 1.0; stroke-dasharray: 2.0,2.0;" x1="594.5" x2="884" y1="647.2344" y2="647.2344"/><text fill="#000000" font-family="sans-serif" font-size="13" lengthAdjust="spacingAndGlyphs" textLength="110" x="611.5" y="642.7295">ProgressCallback()</text><line style="stroke: #A80036; stroke-width: 1.0;" x1="594.5" x2="604.5" y1="677.5859" y2="673.5859"/><line style="stroke: #A80036; stroke-width: 1.0;" x1="594.5" x2="604.5" y1="677.5859" y2="681.5859"/><line style="stroke: #A80036; stroke-width: 1.0; stroke-dasharray: 2.0,2.0;" x1="594.5" x2="884" y1="677.5859" y2="677.5859"/><text fill="#000000" font-family="sans-serif" font-size="13" lengthAdjust="spacingAndGlyphs" textLength="110" x="611.5" y="673.0811">ProgressCallback()</text><polygon fill="#A80036" points="713,687.9375,703,691.9375,713,695.9375,709,691.9375" style="stroke: #A80036; stroke-width: 1.0;"/><line style="stroke: #A80036; stroke-width: 1.0; stroke-dasharray: 2.0,2.0;" x1="707" x2="884" y1="691.9375" y2="691.9375"/><rect fill="none" height="62.7031" style="stroke: #000000; stroke-width: 2.0;" width="323" x="627" y="706.9375"/><polygon fill="#EEEEEE" points="627,706.9375,928,706.9375,928,714.9375,918,724.9375,627,724.9375,627,706.9375" style="stroke: #000000; stroke-width: 2.0;"/><text fill="#000000" font-family="sans-serif" font-size="13" font-weight="bold" lengthAdjust="spacingAndGlyphs" textLength="256" x="642" y="721.4326">Aktuelle laufende Abrechnungsperiode?</text><polygon fill="#A80036" points="873,743.2891,883,747.2891,873,751.2891,877,747.2891" style="stroke: #A80036; stroke-width: 1.0;"/><line style="stroke: #A80036; stroke-width: 1.0;" x1="702" x2="879" y1="747.2891" y2="747.2891"/><text fill="#000000" font-family="sans-serif" font-size="13" lengthAdjust="spacingAndGlyphs" textLength="159" x="709" y="742.7842">GetCurrentRegisterValues()</text><polygon fill="#A80036" points="713,757.6406,703,761.6406,713,765.6406,709,761.6406" style="stroke: #A80036; stroke-width: 1.0;"/><line style="stroke: #A80036; stroke-width: 1.0; stroke-dasharray: 2.0,2.0;" x1="707" x2="884" y1="761.6406" y2="761.6406"/><polygon fill="#A80036" points="534,778.6406,524,782.6406,534,786.6406,530,782.6406" style="stroke: #A80036; stroke-width: 1.0;"/><line style="stroke: #A80036; stroke-width: 1.0;" x1="528" x2="696" y1="782.6406" y2="782.6406"/><!--
@startuml


actor Letztverbraucher

box "Views" #LightBlue
    participant "OperatingMode-\nSelection" as OpModSelView 
    participant "Connect" as ConnectView 
    participant "Contracts" as ContractsView
    participant "Data" as DataView
    participant "Progress" as ProgressView
end box

participant "ApplicationState" as AppState
participant "HAN-Adapter" as HanAdapter

Letztverbraucher -> OpModSelView : Startet TRuDI
activate OpModSelView

Letztverbraucher -> OpModSelView : W채hlt Display-Funktion aus
OpModSelView -> ConnectView
deactivate OpModSelView

activate ConnectView
Letztverbraucher -> ConnectView : Gibt Verbindungsdaten ein
Letztverbraucher -> ConnectView : Verbinden

ConnectView ->> AppState : ConnectAndLoadContracts()
activate AppState

ConnectView ->> ProgressView : Anzeigen
deactivate ConnectView
activate ProgressView

AppState -> HanAdapter : Connect()
activate HanAdapter
ProgressView <<- - HanAdapter : ProgressCallback()
AppState <- - HanAdapter
deactivate HanAdapter

AppState -> HanAdapter : LoadAvailableContracts()
activate HanAdapter
ProgressView <<- - HanAdapter : ProgressCallback()
ProgressView <<- - HanAdapter : ProgressCallback()
AppState <- - HanAdapter 
deactivate HanAdapter

AppState -> ContractsView : Anzeigen
deactivate ProgressView
deactivate AppState
activate ContractsView

Letztverbraucher -> ContractsView : W채hlt Vertrag und Zeitbereich aus

ContractsView -> AppState : LoadData()
activate AppState

ContractsView ->> ProgressView : Anzeigen
deactivate ConnectView
activate ProgressView
deactivate ContractsView

AppState -> HanAdapter : LoadData()
activate HanAdapter
ProgressView <<- - HanAdapter : ProgressCallback()
ProgressView <<- - HanAdapter : ProgressCallback()
AppState <- - HanAdapter 

group Aktuelle laufende Abrechnungsperiode?
    AppState -> HanAdapter : GetCurrentRegisterValues()
    AppState <- - HanAdapter 
end

deactivate HanAdapter
deactivate ProgressView

AppState -> DataView
deactivate AppState

activate DataView

@enduml

PlantUML version 1.2017.20(Mon Dec 11 17:57:05 CET 2017)
(GPL source distribution)
Java Runtime: Java(TM) SE Runtime Environment
JVM: Java HotSpot(TM) 64-Bit Server VM
Java Version: 1.8.0_161-b12
Operating System: Windows 10
OS Version: 10.0
Default Encoding: Cp1252
Language: de
Country: DE
--></g></svg>