<?xml version="1.0" encoding="UTF-8" standalone="no"?><svg xmlns="http://www.w3.org/2000/svg" xmlns:xlink="http://www.w3.org/1999/xlink" contentScriptType="application/ecmascript" contentStyleType="text/css" height="1081px" preserveAspectRatio="none" style="width:371px;height:1081px;" version="1.1" viewBox="0 0 371 1081" width="371px" zoomAndPan="magnify"><defs><filter height="300%" id="f952jnnp7ndm2" width="300%" x="-1" y="-1"><feGaussianBlur result="blurOut" stdDeviation="2.0"/><feColorMatrix in="blurOut" result="blurOut2" type="matrix" values="0 0 0 0 0 0 0 0 0 0 0 0 0 0 0 0 0 0 .4 0"/><feOffset dx="4.0" dy="4.0" in="blurOut2" result="blurOut3"/><feBlend in="SourceGraphic" in2="blurOut3" mode="normal"/></filter></defs><g><!--cluster TRuDI--><rect fill="#FFFFFF" filter="url(#f952jnnp7ndm2)" height="522" style="stroke: #000000; stroke-width: 1.5;" width="311" x="38" y="262"/><path d="M89,263 L89,272.6094 L79,282.6094 L38,282.6094 " fill="none" style="stroke: #000000; stroke-width: 1.5;"/><text fill="#000000" font-family="sans-serif" font-size="14" font-weight="bold" lengthAdjust="spacingAndGlyphs" textLength="41" x="41" y="277.5332">TRuDI</text><!--entity Backend--><rect fill="#FEFECE" filter="url(#f952jnnp7ndm2)" height="47.6094" style="stroke: #A80036; stroke-width: 1.5;" width="139" x="113.5" y="492"/><rect fill="#FEFECE" height="10" style="stroke: #A80036; stroke-width: 1.5;" width="15" x="232.5" y="497"/><rect fill="#FEFECE" height="2" style="stroke: #A80036; stroke-width: 1.5;" width="4" x="230.5" y="499"/><rect fill="#FEFECE" height="2" style="stroke: #A80036; stroke-width: 1.5;" width="4" x="230.5" y="503"/><text fill="#000000" font-family="sans-serif" font-size="14" lengthAdjust="spacingAndGlyphs" textLength="99" x="128.5" y="526.5332">TRuDI.Backend</text><!--entity Frontend--><rect fill="#FEFECE" filter="url(#f952jnnp7ndm2)" height="47.6094" style="stroke: #A80036; stroke-width: 1.5;" width="142" x="112" y="298"/><rect fill="#FEFECE" height="10" style="stroke: #A80036; stroke-width: 1.5;" width="15" x="234" y="303"/><rect fill="#FEFECE" height="2" style="stroke: #A80036; stroke-width: 1.5;" width="4" x="232" y="305"/><rect fill="#FEFECE" height="2" style="stroke: #A80036; stroke-width: 1.5;" width="4" x="232" y="309"/><text fill="#000000" font-family="sans-serif" font-size="14" lengthAdjust="spacingAndGlyphs" textLength="102" x="127" y="332.5332">TRuDI.Frontend</text><!--entity HanAdapter--><rect fill="#FEFECE" filter="url(#f952jnnp7ndm2)" height="47.6094" style="stroke: #A80036; stroke-width: 1.5;" width="122" x="54" y="720"/><rect fill="#FEFECE" height="10" style="stroke: #A80036; stroke-width: 1.5;" width="15" x="156" y="725"/><rect fill="#FEFECE" height="2" style="stroke: #A80036; stroke-width: 1.5;" width="4" x="154" y="727"/><rect fill="#FEFECE" height="2" style="stroke: #A80036; stroke-width: 1.5;" width="4" x="154" y="731"/><text fill="#000000" font-family="sans-serif" font-size="14" lengthAdjust="spacingAndGlyphs" textLength="82" x="69" y="754.5332">HAN-Adapter</text><!--entity TafAdapter--><rect fill="#FEFECE" filter="url(#f952jnnp7ndm2)" height="47.6094" style="stroke: #A80036; stroke-width: 1.5;" width="122" x="211" y="720"/><rect fill="#FEFECE" height="10" style="stroke: #A80036; stroke-width: 1.5;" width="15" x="313" y="725"/><rect fill="#FEFECE" height="2" style="stroke: #A80036; stroke-width: 1.5;" width="4" x="311" y="727"/><rect fill="#FEFECE" height="2" style="stroke: #A80036; stroke-width: 1.5;" width="4" x="311" y="731"/><text fill="#000000" font-family="sans-serif" font-size="14" lengthAdjust="spacingAndGlyphs" textLength="82" x="226" y="754.5332">TAF-Adapter</text><!--entity IHanAdapter--><ellipse cx="122" cy="630" fill="#FEFECE" filter="url(#f952jnnp7ndm2)" rx="8" ry="8" style="stroke: #A80036; stroke-width: 2.0;"/><text fill="#000000" font-family="sans-serif" font-size="14" lengthAdjust="spacingAndGlyphs" textLength="78" x="83" y="661.5332">IHanAdapter</text><!--entity ITafAdapter--><ellipse cx="264" cy="630" fill="#FEFECE" filter="url(#f952jnnp7ndm2)" rx="8" ry="8" style="stroke: #A80036; stroke-width: 2.0;"/><text fill="#000000" font-family="sans-serif" font-size="14" lengthAdjust="spacingAndGlyphs" textLength="74" x="227" y="661.5332">ITafAdapter</text><polygon fill="#FBFB77" filter="url(#f952jnnp7ndm2)" points="156.5,406,156.5,432.3516,209.5,432.3516,209.5,416,199.5,406,156.5,406" style="stroke: #A80036; stroke-width: 1.0;"/><line style="stroke: #A80036; stroke-width: 1.0;" x1="199.5" x2="199.5" y1="406" y2="416"/><line style="stroke: #A80036; stroke-width: 1.0;" x1="209.5" x2="199.5" y1="416" y2="416"/><text fill="#000000" font-family="sans-serif" font-size="13" lengthAdjust="spacingAndGlyphs" textLength="32" x="162.5" y="424.4951">HTTP</text><!--entity Letztverbraucher--><ellipse cx="98" cy="163" fill="#FEFECE" filter="url(#f952jnnp7ndm2)" rx="8" ry="8" style="stroke: #A80036; stroke-width: 2.0;"/><path d="M98,171 L98,198 M85,179 L111,179 M98,198 L85,213 M98,198 L111,213 " fill="#FEFECE" filter="url(#f952jnnp7ndm2)" style="stroke: #A80036; stroke-width: 2.0;"/><text fill="#000000" font-family="sans-serif" font-size="14" lengthAdjust="spacingAndGlyphs" textLength="107" x="44.5" y="234.5332">Letztverbraucher</text><!--entity Lieferant--><ellipse cx="268" cy="18" fill="#FEFECE" filter="url(#f952jnnp7ndm2)" rx="8" ry="8" style="stroke: #A80036; stroke-width: 2.0;"/><path d="M268,26 L268,53 M255,34 L281,34 M268,53 L255,68 M268,53 L281,68 " fill="#FEFECE" filter="url(#f952jnnp7ndm2)" style="stroke: #A80036; stroke-width: 2.0;"/><text fill="#000000" font-family="sans-serif" font-size="14" lengthAdjust="spacingAndGlyphs" textLength="56" x="240" y="89.5332">Lieferant</text><!--entity Smgw--><polygon fill="#FEFECE" filter="url(#f952jnnp7ndm2)" points="27,924,37,914,203,914,203,951.6094,193,961.6094,27,961.6094,27,924" style="stroke: #000000; stroke-width: 1.5;"/><line style="stroke: #000000; stroke-width: 1.5;" x1="193" x2="202" y1="924" y2="915"/><line style="stroke: #000000; stroke-width: 1.5;" x1="27" x2="193" y1="924" y2="924"/><line style="stroke: #000000; stroke-width: 1.5;" x1="193" x2="193" y1="924" y2="961.6094"/><text fill="#000000" font-family="sans-serif" font-size="14" lengthAdjust="spacingAndGlyphs" textLength="136" x="42" y="948.5332">Smart Meter Gateway</text><!--entity Meter1--><polygon fill="#FEFECE" filter="url(#f952jnnp7ndm2)" points="6,1032,16,1022,98,1022,98,1059.6094,88,1069.6094,6,1069.6094,6,1032" style="stroke: #000000; stroke-width: 1.5;"/><line style="stroke: #000000; stroke-width: 1.5;" x1="88" x2="97" y1="1032" y2="1023"/><line style="stroke: #000000; stroke-width: 1.5;" x1="6" x2="88" y1="1032" y2="1032"/><line style="stroke: #000000; stroke-width: 1.5;" x1="88" x2="88" y1="1032" y2="1069.6094"/><text fill="#000000" font-family="sans-serif" font-size="14" lengthAdjust="spacingAndGlyphs" textLength="52" x="21" y="1056.5332">Zähler 1</text><!--entity Meter2--><polygon fill="#FEFECE" filter="url(#f952jnnp7ndm2)" points="133,1032,143,1022,225,1022,225,1059.6094,215,1069.6094,133,1069.6094,133,1032" style="stroke: #000000; stroke-width: 1.5;"/><line style="stroke: #000000; stroke-width: 1.5;" x1="215" x2="224" y1="1032" y2="1023"/><line style="stroke: #000000; stroke-width: 1.5;" x1="133" x2="215" y1="1032" y2="1032"/><line style="stroke: #000000; stroke-width: 1.5;" x1="215" x2="215" y1="1032" y2="1069.6094"/><text fill="#000000" font-family="sans-serif" font-size="14" lengthAdjust="spacingAndGlyphs" textLength="52" x="148" y="1056.5332">Zähler n</text><polygon fill="#FBFB77" filter="url(#f952jnnp7ndm2)" points="17.5,828,17.5,854.3516,212.5,854.3516,212.5,838,202.5,828,17.5,828" style="stroke: #A80036; stroke-width: 1.0;"/><line style="stroke: #A80036; stroke-width: 1.0;" x1="202.5" x2="202.5" y1="828" y2="838"/><line style="stroke: #A80036; stroke-width: 1.0;" x1="212.5" x2="202.5" y1="838" y2="838"/><text fill="#000000" font-family="sans-serif" font-size="13" lengthAdjust="spacingAndGlyphs" textLength="174" x="23.5" y="846.4951">TLS über Ethernet-Verbindung</text><!--entity LieferantenXml--><polygon fill="#FEFECE" filter="url(#f952jnnp7ndm2)" points="187,176.5,187,214.1094,349,214.1094,349,186.5,339,176.5,187,176.5" style="stroke: #000000; stroke-width: 1.5;"/><path d="M339,176.5 L339,186.5 L349,186.5 " fill="#FEFECE" style="stroke: #000000; stroke-width: 1.5;"/><text fill="#000000" font-family="sans-serif" font-size="14" lengthAdjust="spacingAndGlyphs" textLength="142" x="197" y="201.0332">Lieferanten-XML-Datei</text><!--link Frontend to NoteFrontendBackend--><path d="M183,346.483 C183,365.275 183,390.871 183,405.798 " fill="none" id="Frontend-NoteFrontendBackend" style="stroke: #A80036; stroke-width: 1.0;"/><!--link NoteFrontendBackend to Backend--><path d="M183,432.032 C183,445.723 183,468.548 183,486.796 " fill="none" id="NoteFrontendBackend-Backend" style="stroke: #A80036; stroke-width: 1.0;"/><polygon fill="#A80036" points="183,491.81,187,482.81,183,486.81,179,482.81,183,491.81" style="stroke: #A80036; stroke-width: 1.0;"/><!--link Backend to IHanAdapter--><path d="M170.361,540.206 C157.857,563.165 139.169,597.477 129.076,616.007 " fill="none" id="Backend-IHanAdapter" style="stroke: #A80036; stroke-width: 1.0;"/><polygon fill="#A80036" points="126.47,620.793,134.288,614.8031,128.8619,616.4022,127.2627,610.9761,126.47,620.793" style="stroke: #A80036; stroke-width: 1.0;"/><!--link IHanAdapter to HanAdapter--><path d="M121.497,639.055 C120.456,655.707 118.033,694.469 116.458,719.666 " fill="none" id="IHanAdapter-HanAdapter" style="stroke: #A80036; stroke-width: 1.0;"/><!--link Backend to ITafAdapter--><path d="M199.783,540.206 C216.529,563.361 241.627,598.064 254.945,616.479 " fill="none" id="Backend-ITafAdapter" style="stroke: #A80036; stroke-width: 1.0;"/><polygon fill="#A80036" points="258.064,620.793,256.0311,611.1562,255.1339,616.7415,249.5487,615.8443,258.064,620.793" style="stroke: #A80036; stroke-width: 1.0;"/><!--link ITafAdapter to TafAdapter--><path d="M264.575,639.055 C265.765,655.707 268.534,694.469 270.333,719.666 " fill="none" id="ITafAdapter-TafAdapter" style="stroke: #A80036; stroke-width: 1.0;"/><!--link Lieferant to LieferantenXml--><path d="M268,93.246 C268,118.629 268,150.102 268,171.16 " fill="none" id="Lieferant-LieferantenXml" style="stroke: #A80036; stroke-width: 1.0;"/><polygon fill="#A80036" points="268,176.279,272,167.279,268,171.279,264,167.279,268,176.279" style="stroke: #A80036; stroke-width: 1.0;"/><!--link LieferantenXml to Frontend--><path d="M255.64,214.603 C241.509,235.301 218.22,269.413 201.828,293.422 " fill="none" id="LieferantenXml-Frontend" style="stroke: #A80036; stroke-width: 1.0;"/><polygon fill="#A80036" points="198.852,297.782,207.2301,292.6043,201.6712,293.6526,200.6229,288.0937,198.852,297.782" style="stroke: #A80036; stroke-width: 1.0;"/><!--link Letztverbraucher to Frontend--><path d="M126.54,238.303 C138.972,256.512 153.197,277.347 164.258,293.548 " fill="none" id="Letztverbraucher-Frontend" style="stroke: #A80036; stroke-width: 1.0;"/><polygon fill="#A80036" points="167.29,297.989,165.5206,288.3004,164.4715,293.8591,158.9128,292.81,167.29,297.989" style="stroke: #A80036; stroke-width: 1.0;"/><!--link HanAdapter to NoteHanToGatewayConnection--><path d="M115,768.483 C115,787.275 115,812.871 115,827.798 " fill="none" id="HanAdapter-NoteHanToGatewayConnection" style="stroke: #A80036; stroke-width: 1.0;"/><!--link NoteHanToGatewayConnection to Smgw--><path d="M115,854.032 C115,867.723 115,890.548 115,908.796 " fill="none" id="NoteHanToGatewayConnection-Smgw" style="stroke: #A80036; stroke-width: 1.0;"/><polygon fill="#A80036" points="115,913.81,119,904.81,115,908.81,111,904.81,115,913.81" style="stroke: #A80036; stroke-width: 1.0;"/><!--link Smgw to Meter1--><path d="M101.3299,962 C91.737,978.1409 78.8545,999.8162 68.6601,1016.9688 " fill="none" id="Smgw-Meter1" style="stroke: #A80036; stroke-width: 1.0;"/><polygon fill="#A80036" points="65.8609,1021.6784,73.8978,1015.9856,68.4156,1017.3803,67.0209,1011.8981,65.8609,1021.6784" style="stroke: #A80036; stroke-width: 1.0;"/><!--link Smgw to Meter2--><path d="M128.887,962 C138.632,978.1409 151.719,999.8162 162.075,1016.9688 " fill="none" id="Smgw-Meter2" style="stroke: #A80036; stroke-width: 1.0;"/><polygon fill="#A80036" points="164.919,1021.6784,163.691,1011.9064,162.3345,1017.3982,156.8427,1016.0417,164.919,1021.6784" style="stroke: #A80036; stroke-width: 1.0;"/><!--
@startuml

skinparam componentStyle uml2

:Letztverbraucher:
:Lieferant: as Lieferant
node "Smart Meter Gateway" as Smgw
node "Zähler 1" as Meter1
node "Zähler n" as Meter2

frame TRuDI {
    component "TRuDI.Backend" as Backend
    component  "TRuDI.Frontend" as Frontend 
    component "HAN-Adapter" as HanAdapter
    component "TAF-Adapter" as TafAdapter

    interface "IHanAdapter" as IHanAdapter
    interface "ITafAdapter" as ITafAdapter

    note "HTTP" as NoteFrontendBackend

    Frontend - - NoteFrontendBackend
    NoteFrontendBackend - -> Backend

    Backend - -> IHanAdapter
    IHanAdapter - - HanAdapter

    Backend - -> ITafAdapter
    ITafAdapter - - TafAdapter
}

note "TLS über Ethernet-Verbindung" as NoteHanToGatewayConnection

file "Lieferanten-XML-Datei" as LieferantenXml
Lieferant - -> LieferantenXml 
LieferantenXml - -> Frontend
Letztverbraucher - -> Frontend
HanAdapter - - NoteHanToGatewayConnection
NoteHanToGatewayConnection - -> Smgw
Smgw - -> Meter1
Smgw - -> Meter2

@enduml

PlantUML version 1.2017.20(Mon Dec 11 17:57:05 CET 2017)
(GPL source distribution)
Java Runtime: Java(TM) SE Runtime Environment
JVM: Java HotSpot(TM) 64-Bit Server VM
Java Version: 1.8.0_151-b12
Operating System: Windows 10
OS Version: 10.0
Default Encoding: Cp1252
Language: de
Country: DE
--></g></svg>